<?xml version="1.0" standalone="no"?>
<!DOCTYPE svg PUBLIC "-//W3C//DTD SVG 20010904//EN"
 "http://www.w3.org/TR/2001/REC-SVG-20010904/DTD/svg10.dtd">
<svg version="1.0" xmlns="http://www.w3.org/2000/svg"
 width="1080.000000pt" height="1080.000000pt" viewBox="0 0 1080.000000 1080.000000"
 preserveAspectRatio="xMidYMid meet">
<metadata>
Created by potrace 1.14, written by Peter Selinger 2001-2017
</metadata>
<g transform="translate(0.000000,1080.000000) scale(0.100000,-0.100000)"
fill="#000000" stroke="none">
<path d="M6210 10544 c-14 -7 -40 -14 -58 -14 -18 0 -47 -7 -64 -16 -22 -11
-33 -13 -41 -5 -15 15 -27 14 -27 -2 0 -7 -21 -23 -46 -36 -52 -24 -50 -33 11
-53 22 -7 44 -23 50 -34 6 -12 17 -30 25 -39 8 -9 19 -25 25 -35 5 -9 32 -50
60 -90 l49 -72 -22 -18 c-12 -10 -22 -23 -22 -29 0 -21 -26 -11 -60 24 -18 19
-36 32 -40 30 -12 -7 -60 57 -53 69 4 6 -2 4 -12 -4 -11 -9 -16 -10 -11 -2 4
7 1 12 -9 12 -9 0 -13 5 -9 11 4 8 0 9 -15 4 -15 -5 -21 -2 -21 9 0 10 -9 16
-22 17 -13 0 -17 3 -10 6 15 6 16 43 1 43 -6 0 -29 13 -52 28 -23 15 -53 33
-67 39 -100 45 -122 53 -139 53 -11 0 -23 5 -26 10 -3 6 -17 10 -30 10 -13 0
-26 4 -29 9 -3 5 -20 11 -38 14 -18 4 -67 12 -108 19 -83 14 -368 17 -470 5
-107 -13 -112 -15 -105 -37 5 -17 2 -20 -24 -20 -17 0 -31 5 -31 11 0 5 6 7
13 3 9 -5 9 -4 1 5 -15 16 -54 -2 -54 -24 0 -8 -7 -15 -15 -15 -8 0 -15 5 -15
10 0 6 -4 10 -10 10 -5 0 -10 -9 -10 -20 0 -16 -7 -20 -30 -20 -16 0 -30 -4
-30 -10 0 -5 -9 -10 -19 -10 -11 0 -36 -8 -58 -19 -21 -10 -99 -49 -174 -86
l-136 -67 -36 21 c-20 12 -53 30 -72 41 -20 11 -44 20 -53 20 -10 0 -22 4 -28
9 -17 16 -102 31 -174 31 -92 0 -168 -17 -235 -53 -11 -6 -32 -17 -47 -25 -34
-17 -36 -24 -4 -16 13 3 27 1 30 -5 5 -7 -3 -11 -18 -11 -14 0 -26 -4 -26 -10
0 -5 -10 -10 -22 -10 -19 0 -20 -2 -8 -10 12 -8 10 -10 -8 -10 -13 0 -21 -4
-18 -8 3 -5 -7 -15 -22 -23 -15 -8 -40 -26 -56 -41 -16 -16 -33 -28 -37 -28
-11 0 -45 -27 -72 -57 -11 -13 -24 -23 -29 -23 -4 0 -17 -8 -27 -17 -26 -24
-39 -34 -81 -63 -19 -14 -37 -28 -40 -31 -3 -3 -25 -18 -50 -32 -25 -14 -55
-35 -67 -47 -12 -11 -29 -20 -38 -20 -9 0 -13 -4 -10 -10 3 -5 0 -10 -7 -10
-7 0 -24 -9 -38 -20 -14 -11 -31 -20 -38 -20 -7 0 -22 -9 -34 -20 -12 -11 -28
-20 -35 -20 -7 0 -13 -4 -13 -10 0 -5 -5 -10 -11 -10 -6 0 -31 -13 -56 -30
-24 -16 -46 -30 -48 -30 -2 0 -45 -28 -96 -61 l-92 -61 -55 12 c-30 7 -89 32
-131 57 -42 25 -150 86 -241 136 -204 111 -273 153 -473 284 -87 58 -184 118
-215 135 -31 17 -73 42 -92 57 -19 14 -59 35 -88 45 -53 18 -54 18 -80 -1 -52
-38 -71 -111 -93 -358 -10 -122 -8 -1227 4 -1485 2 -52 2 -89 0 -83 -3 9 -18
5 -51 -13 -26 -14 -51 -30 -57 -35 -5 -5 -17 -9 -27 -9 -10 0 -15 -5 -12 -13
9 -24 -102 -95 -200 -128 -79 -27 -283 -37 -405 -20 -86 13 -193 40 -264 67
l-37 14 2 -403 3 -402 53 -28 c153 -83 357 -123 567 -113 72 3 147 2 169 -3
86 -21 126 -106 70 -150 -34 -26 -54 -26 -82 -1 -15 15 -22 33 -22 60 0 21 -4
41 -8 44 -5 3 -31 -2 -58 -10 -31 -9 -94 -15 -174 -15 -101 -1 -132 -5 -161
-20 -69 -35 -179 -59 -271 -59 l-88 0 0 -242 c0 -203 2 -239 13 -218 39 76
147 51 147 -35 0 -76 -122 -102 -150 -32 -5 13 -9 -376 -9 -910 l-1 -931 67
-8 c220 -23 489 33 752 157 314 149 582 336 856 599 94 91 141 127 152 116 36
-35 -257 -351 -479 -516 -196 -146 -428 -280 -608 -349 -47 -18 -94 -36 -105
-41 -34 -13 -144 -43 -220 -59 -43 -9 -232 -27 -260 -25 -5 1 -43 4 -82 8
l-73 7 0 -419 0 -420 43 -5 c313 -42 523 -34 762 28 110 28 397 120 506 160
165 62 209 79 246 96 24 11 45 19 48 19 2 0 44 19 92 42 266 128 609 368 765
536 43 47 56 69 61 102 5 40 21 68 86 155 17 22 42 56 56 75 13 19 54 55 91
80 43 29 80 64 104 100 93 138 248 420 322 585 14 33 52 116 82 185 54 120 67
172 46 185 -6 3 -13 -1 -16 -10 -4 -10 -13 -13 -26 -9 -11 3 -27 -1 -36 -9 -9
-8 -35 -20 -57 -27 -22 -7 -46 -17 -53 -23 -10 -8 -16 -7 -23 4 -7 12 -10 12
-18 1 -4 -8 -17 -12 -27 -10 -37 7 123 73 226 94 63 12 88 32 114 87 22 50 65
139 232 484 41 84 74 157 74 163 0 16 43 100 52 100 11 0 10 -4 -4 -35 -9 -21
-9 -28 1 -34 9 -6 10 -11 2 -15 -6 -4 -11 -2 -11 5 0 10 -3 10 -12 0 -10 -11
-10 -14 0 -18 19 -7 14 -23 -8 -23 -11 0 -20 -4 -20 -10 0 -5 4 -10 10 -10 8
0 -26 -68 -40 -80 -4 -3 -13 -20 -21 -37 -8 -18 -17 -33 -20 -33 -4 0 -9 -11
-11 -25 -3 -14 -1 -25 3 -25 5 0 9 -4 9 -10 0 -5 -7 -10 -15 -10 -9 0 -15 -10
-15 -26 0 -14 -10 -47 -23 -73 -13 -25 -27 -58 -30 -72 -6 -25 -76 -183 -97
-221 -15 -27 -13 -43 4 -29 22 18 133 251 141 294 4 20 11 40 16 43 5 3 9 13
9 23 0 58 161 354 234 429 61 64 195 178 251 213 97 63 145 90 220 125 87 41
93 43 178 73 72 26 211 28 272 5 22 -9 49 -16 60 -17 11 -1 23 -6 26 -11 4 -5
12 -7 18 -5 19 7 -26 69 -50 69 -20 0 -20 0 3 29 31 40 50 42 68 8 15 -27 80
-66 80 -48 0 4 7 8 15 8 8 0 15 -3 15 -6 0 -13 46 -4 89 17 47 23 103 29 99
12 -2 -7 47 -12 132 -15 120 -3 211 -15 345 -44 76 -16 173 -54 237 -93 162
-99 249 -149 282 -165 26 -12 52 -37 80 -79 23 -34 61 -85 86 -115 89 -106
257 -265 421 -399 24 -19 54 -47 67 -62 13 -14 62 -50 108 -78 46 -28 89 -60
94 -71 6 -10 17 -19 24 -19 8 0 16 -7 20 -15 3 -8 12 -15 20 -15 8 0 16 -3 18
-8 6 -14 133 -72 171 -79 20 -3 37 -10 37 -14 0 -5 7 -9 15 -9 8 0 23 -4 33
-9 9 -5 31 -14 47 -21 17 -7 38 -16 47 -21 10 -5 26 -9 36 -9 10 0 22 -4 28
-8 5 -5 36 -19 69 -32 33 -13 67 -29 75 -36 8 -6 37 -22 63 -34 43 -20 54 -33
112 -131 36 -60 65 -114 65 -119 0 -6 5 -10 10 -10 6 0 10 -6 11 -12 0 -7 40
-78 89 -158 82 -132 309 -571 387 -746 39 -89 87 -227 113 -330 27 -104 37
-298 20 -390 -47 -252 -216 -553 -434 -769 -122 -121 -187 -167 -294 -211
-112 -45 -172 -56 -338 -61 -257 -9 -417 27 -641 141 -63 32 -103 48 -103 40
0 -7 5 -16 10 -19 6 -3 10 -13 10 -21 0 -9 30 -61 67 -117 173 -262 335 -382
534 -395 148 -9 254 34 450 182 70 53 134 96 142 96 50 0 17 -59 -87 -158
-218 -207 -429 -270 -656 -196 -43 15 -140 66 -187 100 -33 24 -29 8 25 -97
158 -307 297 -446 478 -480 120 -22 273 7 409 78 80 41 125 76 196 149 187
195 278 449 293 824 17 384 17 393 41 384 29 -11 40 -113 40 -364 0 -240 -6
-301 -40 -435 -35 -134 -100 -276 -171 -371 -24 -33 -39 -61 -33 -63 5 -1 38
14 72 35 303 185 519 498 611 886 44 189 56 289 63 548 5 202 -13 477 -37 570
-6 19 -6 36 -1 40 5 3 11 16 12 30 6 37 65 -185 83 -310 48 -322 20 -769 -63
-1025 -33 -102 -81 -216 -128 -305 l-46 -86 26 -26 c32 -32 34 -51 7 -78 -24
-24 -34 -25 -71 -3 l-29 17 -32 -39 c-52 -67 -189 -195 -263 -248 -122 -86
-239 -130 -260 -97 -12 19 -35 10 -95 -39 -66 -53 -208 -129 -280 -150 -25 -7
-58 -17 -74 -22 -16 -5 -75 -9 -132 -9 -177 0 -278 46 -423 195 -46 47 -85 85
-87 85 -3 0 -31 -11 -64 -24 -206 -84 -549 -393 -678 -612 -95 -161 -113 -364
-51 -564 43 -137 145 -299 232 -369 43 -34 146 -86 154 -77 3 2 -9 33 -27 69
-25 52 -32 80 -37 153 -8 129 8 212 61 319 53 105 118 195 227 310 63 66 79
89 79 113 0 40 43 75 84 69 20 -3 44 5 76 25 55 34 103 41 108 16 2 -11 -32
-50 -94 -110 -239 -230 -315 -319 -382 -448 -50 -97 -65 -165 -60 -270 3 -66
10 -98 30 -142 15 -32 32 -58 37 -58 6 0 20 9 31 20 11 11 31 20 44 20 31 0
73 -37 81 -71 9 -36 -30 -81 -72 -83 -17 -1 -39 -9 -50 -18 -62 -56 -239 -14
-356 84 -28 23 -52 37 -57 32 -18 -19 -110 -212 -149 -314 -28 -76 -81 -287
-81 -327 0 -10 125 -13 591 -13 l591 0 -7 28 c-13 53 -18 345 -6 417 49 290
261 670 445 794 57 38 73 43 91 25 20 -20 11 -36 -77 -132 -109 -120 -207
-278 -288 -467 -16 -36 -39 -112 -55 -180 -18 -80 -21 -373 -4 -441 l12 -45
103 3 104 3 45 100 c81 181 158 289 305 435 212 210 427 334 438 253 3 -18
-18 -38 -110 -106 -139 -103 -258 -207 -329 -289 l-53 -61 27 -19 c32 -23 35
-54 8 -63 -20 -6 -70 -78 -90 -130 -6 -16 -15 -51 -20 -78 l-8 -47 1101 0
1101 0 -90 90 c-90 91 -115 106 -115 71 0 -25 -46 -61 -77 -61 -14 0 -37 13
-54 29 -38 38 -39 82 -3 110 33 26 54 26 104 1 22 -11 40 -16 40 -10 0 36 116
-39 235 -151 l83 -79 276 0 276 0 0 116 c0 108 -1 115 -19 109 -22 -7 -44 16
-35 39 3 9 17 16 30 16 l24 0 0 287 0 288 -163 160 c-90 88 -183 188 -206 223
-46 69 -73 134 -65 157 13 33 44 13 107 -68 59 -74 109 -126 275 -282 l52 -49
0 711 0 711 -35 6 c-40 8 -49 19 -41 51 5 18 15 26 41 31 l35 6 0 375 0 375
-68 -104 c-106 -161 -324 -414 -697 -813 -337 -359 -458 -527 -510 -709 -23
-78 -16 -228 12 -302 66 -171 259 -353 501 -474 106 -53 158 -63 169 -33 22
62 105 87 137 41 37 -53 7 -125 -62 -150 -47 -16 -285 -16 -362 1 -201 44
-372 115 -545 228 -103 68 -262 215 -336 312 -66 87 -144 246 -169 346 -41
165 -17 465 50 620 4 11 15 38 23 60 79 213 224 481 467 865 209 331 249 405
278 515 53 196 40 457 -33 682 -45 142 -162 438 -210 535 -45 88 -133 224
-168 256 -21 19 -29 22 -45 13 -39 -21 -73 -13 -108 25 -25 26 -34 45 -34 69
0 19 5 37 10 40 24 15 -143 115 -191 115 -19 0 -68 21 -128 54 -129 72 -210
116 -243 133 -16 8 -28 19 -28 25 0 6 -2 9 -5 6 -3 -3 -139 62 -302 143 -163
82 -303 149 -310 149 -7 0 -13 5 -13 10 0 6 6 10 14 10 8 0 18 -4 21 -10 3 -5
15 -10 26 -10 10 0 19 -4 19 -10 0 -5 9 -10 20 -10 11 0 20 -4 20 -10 0 -5 11
-10 25 -10 14 0 25 5 25 10 0 6 -9 10 -20 10 -11 0 -20 5 -20 10 0 6 -10 10
-22 11 -20 0 -20 1 -5 8 12 4 88 -28 245 -106 267 -134 607 -311 637 -333 6
-4 44 -26 85 -47 41 -22 91 -49 110 -60 19 -11 72 -42 117 -67 93 -53 119 -80
231 -245 104 -153 178 -302 285 -571 103 -262 110 -298 111 -560 1 -329 -2
-338 -323 -860 -163 -264 -205 -337 -285 -495 -45 -88 -89 -178 -98 -200 -9
-22 -26 -61 -37 -87 -130 -307 -136 -615 -14 -836 90 -164 185 -264 392 -413
49 -36 171 -99 256 -133 137 -55 159 -54 72 4 -75 51 -205 184 -260 266 -26
40 -59 103 -74 140 -23 60 -26 84 -27 189 0 132 10 177 70 296 66 133 256 384
373 493 31 30 40 59 21 71 -17 10 -11 71 8 88 21 19 64 22 93 6 22 -11 55 21
312 307 277 307 410 484 434 577 7 27 28 78 48 114 l35 64 0 167 0 167 -43 -3
c-55 -5 -77 19 -89 94 -10 65 2 100 44 123 25 14 29 14 57 -7 l31 -23 0 612 0
611 -53 81 c-30 45 -77 107 -105 138 -29 31 -52 63 -52 72 0 8 -7 20 -15 27
-13 11 -14 10 -9 -5 6 -15 4 -16 -14 -6 -12 7 -22 18 -22 25 0 7 -12 19 -27
27 -16 7 -43 28 -61 46 l-33 33 27 0 c14 0 45 -14 68 -32 75 -58 228 -210 272
-269 l24 -33 0 554 0 554 -20 -22 c-37 -40 -100 -19 -100 32 0 37 33 59 80 54
l40 -4 0 388 -1 387 -42 30 c-103 73 -190 108 -292 117 -62 5 -72 4 -92 -15
-40 -38 -45 19 -15 165 36 170 69 396 131 874 10 70 18 141 41 360 12 109 27
255 40 373 26 260 32 309 42 387 6 47 11 159 12 250 1 183 2 180 -77 293 -67
96 -120 114 -247 83 -215 -54 -336 -93 -445 -146 -66 -31 -194 -94 -285 -138
-235 -114 -401 -192 -406 -192 -10 0 -405 -200 -475 -240 -40 -23 -142 -87
-225 -141 -83 -55 -157 -99 -165 -99 -8 0 -20 -5 -27 -12 -17 -17 -27 -2 -12
17 7 9 10 18 6 22 -3 4 -13 -2 -21 -13 -13 -17 -14 -17 -15 -1 0 9 -7 17 -16
17 -8 0 -13 4 -10 9 3 5 16 7 29 4 22 -4 22 -4 2 12 -11 10 -45 29 -75 43 -50
24 -66 26 -181 25 -127 0 -183 -11 -124 -24 27 -6 25 -7 -13 -8 -34 -1 -48 4
-63 22 -18 22 -26 67 -11 67 4 0 15 12 25 28 23 38 73 92 85 92 6 0 8 9 5 20
-4 14 0 20 11 20 21 0 20 19 0 49 -16 22 -16 26 -1 51 15 25 15 29 1 40 -8 7
-14 25 -13 39 4 51 0 64 -19 59 -13 -4 -25 4 -38 23 -10 16 -22 29 -26 29 -4
0 -20 -19 -34 -42 -65 -103 -111 -150 -243 -251 -68 -52 -76 -56 -95 -43 -18
11 -22 27 -27 107 -9 130 -30 199 -80 259 -11 14 -18 20 -16 15 3 -6 2 -17 -4
-25 -7 -13 -9 -13 -9 -1 0 8 -24 40 -52 71 -29 32 -89 98 -133 148 -44 50 -84
91 -89 91 -5 1 -45 32 -90 70 -44 38 -98 78 -119 90 -70 39 -89 54 -98 79 -7
19 -12 22 -23 13 -10 -9 -35 -4 -104 18 -50 17 -110 31 -134 32 -24 1 -55 8
-70 16 -34 17 -135 15 -168 -3z m-1032 -51 c-10 -2 -28 -2 -40 0 -13 2 -5 4
17 4 22 1 32 -1 23 -4z m209 -19 c-3 -3 -12 -4 -19 -1 -8 3 -5 6 6 6 11 1 17
-2 13 -5z m110 -20 c-3 -3 -12 -4 -19 -1 -8 3 -5 6 6 6 11 1 17 -2 13 -5z
m266 -101 c-7 -2 -19 -2 -25 0 -7 3 -2 5 12 5 14 0 19 -2 13 -5z m57 -23 c0
-5 -5 -10 -11 -10 -5 0 -7 5 -4 10 3 6 8 10 11 10 2 0 4 -4 4 -10z m-2057 -37
c-7 -2 -21 -2 -30 0 -10 3 -4 5 12 5 17 0 24 -2 18 -5z m307 -23 c0 -5 -2 -10
-4 -10 -3 0 -8 5 -11 10 -3 6 -1 10 4 10 6 0 11 -4 11 -10z m40 -20 c0 -5 -2
-10 -4 -10 -3 0 -8 5 -11 10 -3 6 -1 10 4 10 6 0 11 -4 11 -10z m70 -47 c0 -7
-39 17 -46 28 -3 6 5 3 20 -6 14 -10 26 -19 26 -22z m-2933 -102 c22 -16 71
-46 109 -67 38 -21 134 -81 214 -134 162 -108 307 -196 423 -258 42 -23 112
-61 155 -84 200 -107 280 -161 607 -408 226 -170 512 -371 583 -409 26 -14 62
0 62 24 0 8 5 15 10 15 13 0 13 -15 0 -38 -16 -28 -150 -311 -150 -316 0 -2
-15 -37 -33 -78 -19 -40 -40 -89 -47 -108 -7 -19 -24 -59 -36 -87 -13 -29 -44
-106 -70 -170 -25 -65 -51 -131 -59 -148 -44 -100 -62 -155 -59 -186 3 -29 2
-31 -5 -9 -8 23 -9 24 -16 5 -4 -11 -16 -39 -27 -61 -12 -26 -17 -50 -13 -63
8 -27 35 -28 35 -1 0 11 5 20 10 20 6 0 10 12 10 26 0 14 -4 23 -10 19 -5 -3
-10 2 -10 11 0 14 3 15 12 6 18 -18 28 -15 28 9 0 21 27 55 36 46 3 -3 1 -13
-4 -24 -9 -17 -17 -36 -42 -98 -5 -14 -15 -37 -21 -52 -7 -16 -16 -39 -22 -53
-5 -14 -13 -33 -18 -42 -5 -10 -9 -24 -9 -32 0 -7 -7 -19 -15 -26 -9 -7 -14
-19 -11 -26 3 -7 1 -16 -4 -19 -6 -4 -10 -13 -10 -21 0 -8 -9 -36 -21 -62 -26
-58 -27 -60 -84 -207 -98 -252 -284 -636 -368 -760 -81 -119 -88 -130 -95
-135 -5 -3 -33 -44 -65 -92 -56 -86 -110 -148 -129 -148 -19 0 -70 -43 -98
-81 l-28 -39 -28 22 c-16 12 -31 23 -33 25 -2 1 2 16 9 33 12 28 9 34 -57 137
-136 209 -235 403 -322 628 -24 61 -47 119 -52 130 -11 27 -59 172 -71 215 -5
19 -13 49 -18 65 -9 30 -23 80 -41 145 -20 73 -59 252 -78 355 -53 288 -79
489 -103 805 -15 190 -18 1544 -5 1675 10 93 24 155 36 155 4 0 26 -13 48 -29z
m9219 -24 c19 -27 39 -67 45 -90 12 -46 7 -239 -11 -387 -10 -81 -14 -118 -40
-370 -6 -58 -15 -145 -21 -195 -5 -49 -14 -130 -19 -180 -39 -369 -94 -795
-139 -1075 -39 -237 -66 -365 -124 -581 -9 -32 -28 -75 -42 -98 -20 -29 -26
-48 -21 -66 10 -40 51 -32 126 25 36 28 73 50 83 50 17 0 16 -3 -4 -32 -76
-109 -196 -243 -227 -252 -57 -19 -43 -106 18 -106 37 0 77 -18 85 -38 14 -37
-51 -89 -147 -116 -34 -10 -62 -24 -68 -35 -5 -11 -12 -52 -15 -93 -6 -69 -12
-104 -36 -188 -14 -48 -41 -110 -48 -110 -3 0 -37 16 -75 35 -39 19 -76 35
-83 35 -7 0 -13 5 -13 10 0 6 -7 10 -15 10 -8 0 -15 5 -15 10 0 6 -9 10 -20
10 -11 0 -20 5 -20 12 0 6 -3 8 -6 5 -4 -3 -16 -1 -27 4 -15 8 -22 8 -28 -2
-6 -11 -12 -10 -27 4 -10 9 -26 17 -35 17 -19 0 -35 22 -19 28 24 8 -37 50
-163 112 -71 36 -131 68 -133 73 -2 4 -12 7 -21 7 -14 0 -17 -6 -13 -25 4 -21
7 -23 19 -14 11 10 15 8 19 -7 4 -14 15 -21 36 -22 17 -1 43 -11 58 -22 16
-11 35 -20 44 -20 9 0 16 -4 16 -10 0 -5 9 -10 20 -10 11 0 20 -4 20 -10 0 -5
9 -10 19 -10 10 0 29 -9 42 -20 21 -17 22 -19 6 -20 -10 0 -49 13 -85 29 -37
16 -89 36 -117 46 -124 43 -145 54 -145 80 0 11 -6 27 -12 34 -11 11 -8 12 15
7 55 -13 24 12 -75 61 -57 28 -132 60 -167 72 -35 12 -77 29 -92 37 -16 8 -29
12 -29 9 0 -3 -18 4 -40 15 -21 11 -45 20 -51 20 -14 0 -183 68 -279 113 -36
16 -135 62 -220 101 -85 39 -186 88 -223 109 -37 20 -71 37 -75 37 -4 0 -28
15 -53 33 -25 17 -73 51 -105 73 -57 40 -180 148 -215 189 -81 95 -141 169
-175 215 -43 58 -184 269 -184 276 0 2 -14 27 -31 56 -18 29 -63 114 -101 188
-38 74 -74 138 -80 141 -5 4 -8 15 -6 25 5 18 5 18 13 -1 11 -25 44 -55 61
-55 14 0 255 146 384 233 41 28 167 118 280 201 876 640 1076 767 1554 985 38
18 103 48 145 68 42 19 105 49 141 65 36 17 160 77 275 133 228 112 254 122
425 167 63 17 129 34 145 38 17 5 48 8 69 7 35 -2 43 -7 72 -50z m-3584 -144
c32 -29 18 -61 -22 -48 -26 8 -27 65 -2 65 3 0 14 -7 24 -17z m-114 -57 c-2
-15 -10 -21 -27 -21 -30 0 -37 17 -16 38 20 21 47 10 43 -17z m-3106 -43 c24
-21 23 -58 -2 -83 -26 -26 -50 -25 -78 0 -26 24 -28 47 -6 78 18 26 60 29 86
5z m2960 -55 c8 -21 -2 -38 -23 -38 -21 0 -25 20 -7 38 15 15 25 15 30 0z
m470 -66 c36 -33 33 -62 -7 -62 -27 0 -65 31 -65 53 0 14 20 37 32 37 4 0 22
-13 40 -28z m-1780 1 c38 -34 11 -103 -42 -103 -40 0 -63 22 -63 60 0 54 63
81 105 43z m1526 -19 c28 -19 29 -57 2 -84 -55 -55 -127 22 -75 80 22 24 43
25 73 4z m-3300 -16 c7 -7 9 -31 5 -70 l-6 -58 37 0 c30 0 37 -3 34 -17 -2 -9
-18 -21 -36 -25 -21 -6 -32 -15 -32 -27 0 -21 -23 -44 -33 -34 -4 3 -7 17 -7
29 0 19 -9 25 -47 36 -37 10 -48 18 -48 33 0 21 10 23 57 10 32 -8 34 -5 43
78 7 58 12 66 33 45z m3819 -25 c-3 -10 -5 -4 -5 12 0 17 2 24 5 18 2 -7 2
-21 0 -30z m-1400 -229 c-3 -3 -12 -4 -19 -1 -8 3 -5 6 6 6 11 1 17 -2 13 -5z
m2006 -61 c-13 -2 -33 -2 -45 0 -13 2 -3 4 22 4 25 0 35 -2 23 -4z m120 0 c-7
-2 -21 -2 -30 0 -10 3 -4 5 12 5 17 0 24 -2 18 -5z m-1939 -35 c19 -27 21 -79
4 -96 -22 -22 -76 -15 -94 13 -38 59 50 140 90 83z m879 -270 c47 -55 -19
-128 -78 -84 -41 30 -8 124 39 110 12 -3 29 -15 39 -26z m-3306 -120 c13 -12
23 -30 23 -40 0 -43 -72 -76 -98 -45 -23 27 -24 65 -3 86 27 27 49 27 78 -1z
m351 -105 c4 -16 -22 -27 -43 -19 -22 8 -6 38 18 34 11 -2 22 -9 25 -15z
m1709 -55 c-3 -8 -6 -5 -6 6 -1 11 2 17 5 13 3 -3 4 -12 1 -19z m305 -45 c25
-23 23 -68 -4 -87 -33 -23 -64 -19 -87 10 -25 32 -26 43 -5 72 18 27 69 30 96
5z m-2312 -129 c0 -20 -33 -34 -53 -23 -20 12 -23 45 -4 52 18 6 57 -14 57
-29z m337 -50 c3 -8 1 -20 -6 -27 -14 -14 -47 15 -37 32 10 16 36 13 43 -5z
m1730 -231 c-3 -10 -5 -2 -5 17 0 19 2 27 5 18 2 -10 2 -26 0 -35z m-2281 -28
c14 -35 -56 -69 -84 -41 -14 14 -14 17 3 36 21 24 73 27 81 5z m135 5 c37 -20
13 -109 -25 -94 -8 3 -17 23 -20 45 -9 58 3 71 45 49z m2137 -99 c-15 -5 -19
4 -11 24 6 18 7 18 13 -1 4 -10 3 -21 -2 -23z m1052 19 c0 -5 -2 -10 -4 -10
-3 0 -8 5 -11 10 -3 6 -1 10 4 10 6 0 11 -4 11 -10z m20 -40 c0 -5 -2 -10 -4
-10 -3 0 -8 5 -11 10 -3 6 -1 10 4 10 6 0 11 -4 11 -10z m-1023 -107 c-3 -10
-5 -4 -5 12 0 17 2 24 5 18 2 -7 2 -21 0 -30z m20 -85 c-3 -8 -6 -5 -6 6 -1
11 2 17 5 13 3 -3 4 -12 1 -19z m-2150 -24 c8 -21 -21 -44 -54 -44 -16 0 -23
6 -23 20 0 35 65 55 77 24z m2230 -96 c-3 -8 -6 -5 -6 6 -1 11 2 17 5 13 3 -3
4 -12 1 -19z m-1997 2 c0 -6 -9 -29 -21 -51 -13 -27 -26 -39 -37 -37 -25 5
-26 40 -2 71 21 26 60 37 60 17z m-3564 -226 c8 -32 0 -50 -25 -57 -25 -6 -61
18 -61 43 0 24 36 49 61 43 10 -3 22 -16 25 -29z m5572 -36 c-4 -29 -38 -38
-38 -10 0 22 8 32 27 32 9 0 13 -8 11 -22z m808 -26 c13 -9 34 -46 34 -62 0
-15 -46 -60 -63 -60 -24 0 -57 40 -57 70 0 47 49 77 86 52z m-3866 -29 c0 -5
-5 -15 -10 -23 -8 -12 -10 -11 -10 8 0 12 5 22 10 22 6 0 10 -3 10 -7z m3035
-13 c3 -5 1 -10 -4 -10 -6 0 -11 5 -11 10 0 6 2 10 4 10 3 0 8 -4 11 -10z
m-860 -30 c7 -23 -10 -50 -30 -50 -14 0 -29 45 -20 60 11 18 44 10 50 -10z
m412 -74 c4 -3 -65 -5 -153 -4 -157 2 -157 2 -54 8 116 7 198 5 207 -4z m78
-16 c24 -6 18 -8 -30 -9 -42 0 -56 2 -45 9 17 11 32 11 75 0z m68 -27 c-7 -2
-19 -2 -25 0 -7 3 -2 5 12 5 14 0 19 -2 13 -5z m1231 -194 c0 -19 -2 -52 -5
-74 -4 -40 -4 -40 35 -45 70 -9 56 -33 -24 -42 -18 -2 -26 -11 -31 -35 -14
-70 -55 -81 -44 -12 l7 39 -40 0 c-42 0 -68 20 -58 45 6 17 36 21 36 5 0 -14
56 -12 68 3 5 6 13 39 17 71 4 33 9 65 12 73 10 25 28 7 27 -28z m-716 4 c15
-34 15 -50 -1 -56 -34 -13 -62 44 -35 71 17 17 21 15 36 -15z m-5901 -365 c27
-25 30 -64 6 -90 -20 -23 -121 -54 -134 -41 -5 5 -12 30 -15 55 -6 41 -4 49
19 72 34 34 91 35 124 4z m573 -178 c0 -5 -4 -10 -10 -10 -5 0 -10 5 -10 10 0
6 5 10 10 10 6 0 10 -4 10 -10z m1923 -181 c28 -15 37 -28 37 -58 0 -53 -60
-79 -108 -45 -28 19 -29 67 -2 94 23 23 42 25 73 9z m-1794 -130 c17 -16 21
-30 19 -57 -6 -70 -95 -84 -126 -20 -11 23 -10 32 2 57 24 46 68 54 105 20z
m2194 -22 c10 -6 20 -29 24 -50 5 -31 2 -42 -17 -62 -45 -47 -120 -19 -120 44
0 20 9 37 31 55 34 29 56 32 82 13z m4007 -63 c0 -2 -9 -4 -21 -4 -11 0 -18 4
-14 10 5 8 35 3 35 -6z m25 -14 c3 -5 -1 -10 -10 -10 -9 0 -13 5 -10 10 3 6 8
10 10 10 2 0 7 -4 10 -10z m2390 0 c3 -5 1 -10 -4 -10 -6 0 -11 5 -11 10 0 6
2 10 4 10 3 0 8 -4 11 -10z m-2355 -20 c0 -5 -4 -10 -10 -10 -5 0 -10 5 -10
10 0 6 5 10 10 10 6 0 10 -4 10 -10z m37 -26 c-3 -3 -12 -4 -19 -1 -8 3 -5 6
6 6 11 1 17 -2 13 -5z m3437 -30 c28 -11 17 -24 -19 -24 -33 0 -43 8 -28 23 8
9 27 9 47 1z m-1719 -48 c30 -13 35 -20 35 -50 0 -39 -17 -54 -106 -99 l-51
-26 -22 29 c-11 16 -21 40 -21 53 0 32 35 76 74 93 40 17 49 17 91 0z m949
-54 c21 -18 36 -36 33 -38 -5 -5 -13 1 -69 49 -12 9 -25 17 -29 17 -5 0 -6 7
-3 15 5 11 9 12 18 2 7 -6 30 -27 50 -45z m-8940 17 c20 -16 26 -29 26 -58 0
-52 -31 -78 -87 -72 -43 4 -59 95 -23 131 26 26 51 25 84 -1z m8841 10 c11
-16 1 -19 -13 -3 -7 8 -8 14 -3 14 5 0 13 -5 16 -11z m165 -79 c0 -5 -4 -10
-10 -10 -5 0 -10 5 -10 10 0 6 5 10 10 10 6 0 10 -4 10 -10z m50 -30 c20 -16
22 -20 8 -20 -10 0 -18 5 -18 10 0 6 -7 10 -15 10 -8 0 -15 5 -15 10 0 15 12
12 40 -10z m56 -35 c17 -16 14 -18 -10 -9 -9 3 -16 10 -16 15 0 13 9 11 26 -6z
m140 -97 c57 -44 66 -58 38 -58 -17 0 -44 23 -44 38 0 5 -10 17 -22 25 -13 9
-18 16 -12 16 6 1 24 -9 40 -21z m-498 -4 c27 -18 30 -69 5 -96 -36 -40 -113
-8 -113 49 0 55 59 81 108 47z m609 -80 c15 -14 22 -23 16 -19 -7 3 -13 1 -13
-4 0 -6 -4 -11 -10 -11 -5 0 -10 9 -10 20 0 11 -4 20 -10 20 -5 0 -10 -5 -10
-11 0 -5 -5 -7 -12 -3 -9 6 -9 9 0 12 7 2 10 8 6 13 -11 19 16 8 43 -17z
m-9457 -39 c0 -8 -4 -15 -10 -15 -5 0 -10 7 -10 15 0 8 5 15 10 15 6 0 10 -7
10 -15z m9500 -5 c0 -5 -9 -10 -20 -10 -11 0 -20 5 -20 10 0 6 9 10 20 10 11
0 20 -4 20 -10z m-952 -54 c4 -19 -13 -36 -35 -36 -7 0 -13 5 -13 10 0 6 6 10
14 10 24 0 27 28 3 33 -18 3 -18 4 3 3 16 -1 26 -8 28 -20z m955 -140 c79 -29
99 -77 51 -121 -20 -19 -38 -25 -71 -25 -38 0 -51 6 -79 34 -39 39 -44 76 -14
106 23 23 59 25 113 6z m-286 -48 c28 -26 29 -48 4 -79 -14 -18 -29 -24 -60
-24 -50 0 -74 22 -74 66 0 66 76 88 130 37z m-236 -79 c15 -29 -3 -67 -36 -75
-28 -7 -51 7 -61 38 -15 48 73 81 97 37z m-7534 -71 c-3 -8 -6 -5 -6 6 -1 11
2 17 5 13 3 -3 4 -12 1 -19z m-2153 -240 c14 -39 0 -77 -31 -84 -33 -9 -55 5
-65 42 -11 40 -2 73 25 83 28 11 59 -7 71 -41z m10456 27 c0 -8 -9 -15 -20
-15 -11 0 -20 7 -20 15 0 8 9 15 20 15 11 0 20 -7 20 -15z m-9376 -350 c21
-56 -12 -105 -69 -105 -43 0 -75 29 -75 68 0 31 32 67 65 74 25 6 71 -16 79
-37z m7705 -49 c23 -27 9 -68 -26 -83 -30 -12 -35 -11 -53 7 -24 24 -26 53 -4
74 19 20 68 21 83 2z m-7471 -117 c-2 -6 -8 -10 -13 -10 -5 0 -11 4 -13 10 -2
6 4 11 13 11 9 0 15 -5 13 -11z m-458 -95 c0 -8 -4 -12 -10 -9 -5 3 -10 10
-10 16 0 5 5 9 10 9 6 0 10 -7 10 -16z m9185 -4 c15 -16 17 -26 9 -48 -16 -45
-88 -43 -100 4 -13 52 54 85 91 44z m-8461 -91 c11 -17 20 -20 45 -14 27 6 36
2 66 -28 56 -56 40 -127 -29 -127 -44 0 -74 24 -86 71 -6 22 -14 37 -19 35
-11 -7 -51 23 -51 39 0 18 27 45 45 45 8 0 20 -9 29 -21z m7406 -44 c17 -9 33
-27 36 -42 22 -87 -90 -142 -131 -63 -19 37 -11 74 22 100 31 24 36 24 73 5z
m1040 -15 c0 -5 -7 -10 -15 -10 -8 0 -15 5 -15 10 0 6 7 10 15 10 8 0 15 -4
15 -10z m224 -55 c19 -15 14 -35 -9 -35 -13 0 -35 29 -35 44 0 11 25 6 44 -9z
m-1073 -109 c37 -60 13 -135 -48 -151 -15 -3 -31 -12 -35 -18 -4 -7 -9 -5 -13
8 -4 11 -13 32 -21 47 -29 55 -10 129 39 147 32 12 57 1 78 -33z m1270 -15
c32 -33 38 -74 14 -108 -51 -72 -169 4 -135 87 24 57 75 66 121 21z m-1916
-10 c3 -5 1 -12 -5 -16 -5 -3 -10 -15 -10 -26 0 -10 -7 -19 -15 -19 -18 0 -20
41 -3 58 14 14 25 15 33 3z m-8695 -56 c0 -8 -7 -15 -15 -15 -8 0 -15 7 -15
15 0 8 7 15 15 15 8 0 15 -7 15 -15z m650 -97 c37 -62 18 -118 -39 -118 -16 0
-35 7 -42 16 -17 20 -15 99 1 120 22 25 59 17 80 -18z m9431 -708 c13 -7 19
-21 19 -43 0 -40 -15 -57 -50 -57 -33 0 -50 17 -50 51 0 48 38 71 81 49z
m-642 -516 c13 -38 13 -45 -2 -68 -12 -18 -26 -26 -46 -26 -36 0 -51 18 -58
68 -7 49 16 74 61 70 26 -3 33 -9 45 -44z m535 25 c71 -56 -15 -160 -108 -129
-36 12 -66 47 -66 78 0 31 25 54 66 62 64 13 80 11 108 -11z m690 -125 c21
-21 4 -54 -28 -54 -33 0 -50 23 -36 49 13 25 42 27 64 5z m-146 -180 c-19 -19
-38 -11 -38 16 0 24 21 31 40 14 12 -12 12 -16 -2 -30z m-2058 -290 c0 -8 -5
-12 -10 -9 -6 4 -8 11 -5 16 9 14 15 11 15 -7z m2234 -60 c34 -13 5 -54 -39
-54 -24 0 -31 31 -10 46 21 16 27 17 49 8z m-2880 -259 c58 -38 54 -112 -8
-142 -29 -13 -39 -14 -65 -4 -64 27 -87 88 -51 134 17 21 30 27 61 27 22 0 50
-7 63 -15z m508 -87 c-13 -13 -26 8 -17 30 6 16 7 16 17 -1 7 -13 7 -22 0 -29z
m1641 -15 c16 -15 -18 -33 -63 -33 -52 0 -65 7 -49 27 12 13 100 19 112 6z
m-1893 -54 c0 -5 -4 -9 -10 -9 -5 0 -10 7 -10 16 0 8 5 12 10 9 6 -3 10 -10
10 -16z m210 -59 c0 -21 -15 -27 -25 -10 -7 12 2 30 16 30 5 0 9 -9 9 -20z
m314 -36 c3 -9 1 -46 -5 -82 -21 -117 -23 -112 50 -133 74 -21 91 -33 73 -51
-12 -12 -110 -17 -140 -7 -16 5 -28 -14 -37 -53 -3 -16 -12 -28 -21 -28 -20 0
-33 39 -23 72 8 28 5 32 -36 53 -11 6 -20 19 -20 30 0 16 8 21 41 23 l41 3 13
81 c13 74 28 108 50 108 4 0 11 -7 14 -16z m-364 -64 c0 -5 -4 -10 -10 -10 -5
0 -10 5 -10 10 0 6 5 10 10 10 6 0 10 -4 10 -10z m-50 -21 c0 -11 -4 -17 -10
-14 -5 3 -10 13 -10 21 0 8 5 14 10 14 6 0 10 -9 10 -21z m-190 -9 c0 -5 -5
-10 -11 -10 -5 0 -7 5 -4 10 3 6 8 10 11 10 2 0 4 -4 4 -10z m-465 -130 c-5
-8 -11 -8 -17 -2 -6 6 -7 16 -3 22 5 8 11 8 17 2 6 -6 7 -16 3 -22z m2317
-150 c39 -40 25 -80 -19 -52 -25 16 -38 82 -17 82 3 0 19 -14 36 -30z m-1202
-305 c0 -8 -7 -15 -15 -15 -16 0 -20 12 -8 23 11 12 23 8 23 -8z m-1170 -14
c0 -12 -29 -35 -36 -28 -11 10 5 37 21 37 8 0 15 -4 15 -9z m1520 -341 c28
-28 26 -76 -4 -95 -29 -19 -72 -11 -86 15 -37 68 37 133 90 80z m-1912 -342
c-6 -18 -28 -21 -28 -4 0 9 7 16 16 16 9 0 14 -5 12 -12z m1965 -45 c12 -7
-13 -33 -32 -33 -21 0 -41 19 -41 38 0 10 8 12 33 7 17 -4 36 -9 40 -12z
m1615 -10 c4 -31 -58 -63 -83 -43 -21 18 -19 36 8 55 31 22 71 16 75 -12z
m-1285 -24 c48 -22 62 -99 27 -137 -40 -42 -105 -23 -116 33 -10 56 14 99 63
114 1 1 13 -4 26 -10z"/>
<path d="M1430 9015 c-16 -20 -13 -26 66 -125 133 -167 242 -350 418 -696 80
-157 115 -214 134 -214 4 0 13 4 21 9 42 27 -176 489 -364 771 -109 164 -209
270 -253 270 -5 0 -15 -7 -22 -15z"/>
<path d="M1733 8224 c-9 -24 6 -60 107 -247 166 -308 273 -451 324 -431 29 11
31 7 -100 219 -45 73 -73 122 -182 325 -61 114 -85 145 -115 148 -18 2 -29 -2
-34 -14z"/>
<path d="M2878 7514 c-5 -4 -8 -16 -8 -26 0 -10 -4 -18 -10 -18 -5 0 -10 -5
-10 -10 0 -6 -9 -30 -20 -55 -11 -25 -29 -65 -40 -90 -22 -49 -25 -75 -10 -75
6 0 10 9 10 20 0 27 14 25 28 -2 11 -23 11 -23 11 4 1 15 -3 30 -9 33 -5 3
-10 12 -10 18 0 7 7 4 14 -5 7 -10 16 -18 20 -18 12 0 6 48 -6 53 -7 2 -10 8
-5 12 4 5 14 0 22 -11 14 -18 14 -17 15 12 0 16 -6 36 -12 43 -11 11 -9 12 10
6 18 -5 22 -2 22 13 0 11 -6 22 -12 25 -8 2 -9 8 -4 13 5 5 11 4 13 -3 8 -22
23 -14 23 13 0 14 -4 23 -9 19 -5 -3 -11 4 -13 16 -2 11 -6 17 -10 13z"/>
<path d="M2083 7413 c-16 -42 108 -203 157 -203 36 0 34 28 -4 84 -84 122
-136 163 -153 119z"/>
<path d="M2750 7210 c0 -11 5 -20 10 -20 6 0 10 9 10 20 0 11 -4 20 -10 20 -5
0 -10 -9 -10 -20z"/>
<path d="M2735 7167 c-4 -10 -5 -21 -1 -24 10 -10 18 4 13 24 -4 17 -4 17 -12
0z"/>
<path d="M2193 7163 c-21 -8 -15 -48 11 -72 32 -30 80 -26 84 7 7 45 -50 84
-95 65z"/>
<path d="M2710 7105 c0 -8 5 -15 10 -15 6 0 10 7 10 15 0 8 -4 15 -10 15 -5 0
-10 -7 -10 -15z"/>
<path d="M2690 7060 c0 -5 5 -10 10 -10 6 0 10 5 10 10 0 6 -4 10 -10 10 -5 0
-10 -4 -10 -10z"/>
<path d="M9975 9173 c-88 -47 -348 -275 -540 -474 -206 -213 -650 -709 -704
-786 -26 -39 -21 -74 9 -66 35 9 154 128 409 407 316 345 554 584 734 735 165
137 170 142 165 173 -4 29 -33 33 -73 11z"/>
<path d="M9140 8028 c-92 -64 -569 -425 -627 -475 -30 -26 -37 -41 -34 -70 3
-35 119 30 341 195 437 323 481 359 467 396 -12 30 -55 17 -147 -46z"/>
<path d="M8584 7419 c-84 -58 -104 -79 -104 -107 0 -22 3 -24 34 -19 38 6 131
62 165 98 11 13 21 33 21 46 0 37 -47 30 -116 -18z"/>
<path d="M9514 6302 c11 -12 19 -13 27 -5 7 7 3 12 -16 15 -25 5 -25 4 -11
-10z"/>
<path d="M5912 10289 c2 -6 14 -16 26 -20 29 -11 28 -5 -4 16 -17 11 -25 12
-22 4z"/>
<path d="M5165 7400 c-3 -5 -1 -10 4 -10 6 0 11 5 11 10 0 6 -2 10 -4 10 -3 0
-8 -4 -11 -10z"/>
<path d="M5120 7380 c0 -5 7 -7 15 -4 8 4 15 8 15 10 0 2 -7 4 -15 4 -8 0 -15
-4 -15 -10z"/>
<path d="M6430 6474 c-283 -27 -447 -58 -604 -118 -101 -38 -166 -77 -182
-108 -13 -25 -12 -28 5 -38 33 -17 77 -11 158 21 118 47 195 69 318 94 174 35
603 50 705 25 39 -9 55 -10 58 -2 5 16 3 27 -5 27 -5 0 -15 5 -23 10 -8 5 -44
25 -80 43 -81 42 -210 58 -350 46z"/>
<path d="M3537 6146 c-9 -13 -17 -36 -19 -52 l-3 -29 190 -6 c196 -6 292 -21
395 -60 30 -11 68 -25 83 -31 20 -7 36 -7 57 2 68 28 11 84 -135 135 -118 41
-280 65 -441 65 -107 0 -112 -1 -127 -24z"/>
<path d="M8045 5860 c-3 -6 5 -10 19 -10 14 0 28 5 31 10 3 6 -5 10 -19 10
-14 0 -28 -4 -31 -10z"/>
<path d="M8090 5840 c0 -5 9 -10 19 -10 11 0 23 5 26 10 4 6 -5 10 -19 10 -14
0 -26 -4 -26 -10z"/>
<path d="M8130 5820 c0 -5 9 -10 19 -10 11 0 23 5 26 10 4 6 -5 10 -19 10 -14
0 -26 -4 -26 -10z"/>
<path d="M8170 5800 c0 -5 9 -10 20 -10 11 0 20 -4 20 -10 0 -5 9 -10 20 -10
11 0 20 -4 20 -10 0 -5 9 -10 20 -10 11 0 20 -4 20 -10 0 -5 9 -10 20 -10 11
0 20 -4 20 -10 0 -5 9 -10 20 -10 11 0 20 -4 20 -10 0 -5 9 -10 20 -10 11 0
20 -4 20 -10 0 -5 9 -10 20 -10 11 0 20 -3 20 -8 0 -4 15 -13 33 -21 17 -8 34
-18 37 -21 3 -4 21 -11 40 -14 l35 -7 -40 24 c-23 13 -55 30 -73 38 -18 7 -32
16 -32 20 0 3 -16 11 -35 19 -19 8 -35 17 -35 22 0 4 -9 8 -20 8 -11 0 -20 5
-20 10 0 6 -9 10 -20 10 -11 0 -20 5 -20 10 0 6 -9 10 -20 10 -11 0 -20 5 -20
10 0 6 -9 10 -20 10 -11 0 -20 5 -20 10 0 6 -11 10 -25 10 -14 0 -25 -4 -25
-10z"/>
<path d="M6745 5584 c-154 -26 -171 -31 -270 -71 -153 -62 -223 -108 -353
-228 -127 -118 -203 -283 -255 -555 -64 -336 -65 -349 -24 -442 20 -43 57 -75
71 -61 3 4 6 22 6 42 0 51 28 266 51 391 26 141 73 290 117 375 60 114 360
401 389 372 3 -3 -15 -37 -41 -75 -25 -38 -67 -109 -93 -158 l-48 -89 -3 -138
c-5 -154 2 -195 52 -302 58 -125 204 -267 353 -346 85 -45 135 -39 351 38 100
35 111 42 174 106 72 72 124 167 170 304 33 99 31 279 -5 373 -27 72 -85 189
-116 235 -12 17 -21 33 -21 38 0 23 130 -13 204 -57 57 -33 253 -235 261 -268
9 -34 -26 -198 -67 -322 -34 -103 -145 -345 -192 -421 -17 -27 -37 -62 -44
-77 -10 -25 -10 -28 7 -28 10 0 24 7 31 15 7 8 19 15 27 15 47 0 190 226 252
400 7 19 17 44 21 55 14 33 46 146 60 210 7 33 19 72 27 87 8 16 10 39 6 60
-9 44 -50 138 -61 138 -5 0 -49 40 -98 89 -76 75 -104 95 -179 131 -50 23
-137 55 -195 71 -58 16 -132 38 -165 48 -82 27 -249 61 -288 60 -18 -1 -68 -7
-112 -15z m252 -520 c59 -30 118 -65 129 -77 23 -23 102 -200 123 -275 11 -40
10 -46 -19 -101 -66 -123 -100 -148 -292 -211 -154 -51 -203 -39 -325 76 -78
72 -123 154 -123 221 0 83 18 140 72 230 56 92 118 141 198 156 14 3 43 12 65
21 22 8 45 15 52 16 6 0 60 -25 120 -56z"/>
<path d="M6971 5034 c0 -11 3 -14 6 -6 3 7 2 16 -1 19 -3 4 -6 -2 -5 -13z"/>
<path d="M6762 4870 c0 -14 2 -19 5 -12 2 6 2 18 0 25 -3 6 -5 1 -5 -13z"/>
<path d="M7967 5559 c7 -7 15 -10 18 -7 3 3 -2 9 -12 12 -14 6 -15 5 -6 -5z"/>
<path d="M6023 5503 c-61 -34 -208 -209 -248 -294 -34 -73 -33 -107 2 -115 31
-8 33 -6 123 131 32 50 89 123 125 164 52 57 65 79 63 100 -4 32 -24 37 -65
14z"/>
<path d="M3208 5257 c-33 -13 -65 -33 -75 -47 -9 -14 -25 -32 -35 -41 -21 -19
-24 -49 -5 -49 6 0 45 14 86 30 62 25 86 30 160 30 48 0 91 -3 94 -7 4 -3 -24
-36 -61 -72 -76 -73 -112 -143 -152 -301 -19 -71 -22 -102 -18 -204 5 -107 9
-132 41 -220 47 -126 77 -178 146 -246 90 -89 131 -104 288 -108 157 -5 187 3
307 79 107 68 134 94 161 154 l23 50 13 -30 c7 -16 13 -66 14 -110 1 -91 6
-105 40 -105 34 0 45 27 45 107 0 65 -8 102 -76 353 -14 52 -30 113 -36 134
-5 22 -35 92 -66 155 -44 89 -72 132 -121 184 -85 90 -202 177 -276 206 -33
13 -69 27 -80 31 -132 54 -314 65 -417 27z m628 -553 c33 -14 70 -35 83 -47
32 -30 111 -190 111 -226 0 -16 7 -34 15 -41 10 -8 15 -30 15 -63 0 -43 -4
-53 -33 -81 -19 -17 -67 -51 -108 -76 l-74 -45 -95 2 c-110 2 -150 16 -263 92
-96 64 -107 82 -107 171 0 56 5 82 26 124 49 101 160 195 243 207 91 13 128 9
187 -17z"/>
<path d="M3642 4655 c0 -16 2 -22 5 -12 2 9 2 23 0 30 -3 6 -5 -1 -5 -18z"/>
<path d="M3852 4645 c0 -16 2 -22 5 -12 2 9 2 23 0 30 -3 6 -5 -1 -5 -18z"/>
<path d="M3642 4505 c0 -16 2 -22 5 -12 2 9 2 23 0 30 -3 6 -5 -1 -5 -18z"/>
<path d="M3957 5263 c-18 -17 0 -50 74 -135 44 -51 92 -113 106 -138 62 -109
87 -140 115 -140 25 0 26 2 21 43 -11 85 -87 200 -206 315 -60 57 -92 73 -110
55z"/>
<path d="M2565 4610 c-21 -22 -44 -40 -50 -40 -14 0 -85 -72 -85 -86 0 -6 -9
-19 -20 -29 -11 -10 -20 -24 -20 -30 0 -7 -6 -15 -12 -18 -7 -3 -50 -34 -96
-70 -105 -84 -342 -241 -452 -300 -214 -116 -704 -298 -1025 -382 -231 -61
-455 -69 -762 -28 l-43 5 0 -226 0 -225 33 1 c43 1 75 -17 83 -47 9 -37 -18
-70 -70 -86 l-46 -13 0 -249 0 -249 46 68 c204 302 527 606 757 715 69 32 108
37 127 14 23 -28 -3 -58 -86 -100 -161 -82 -412 -300 -571 -495 -94 -116 -209
-294 -243 -376 l-31 -74 3 -368 3 -367 56 -85 c30 -47 104 -150 163 -229 59
-80 113 -156 118 -170 46 -114 41 -244 -13 -320 -36 -52 -288 -461 -313 -509
-12 -23 -16 -60 -16 -137 l0 -105 1416 0 c794 0 1413 4 1410 9 -9 14 -75 23
-225 30 l-144 6 79 56 c90 65 135 89 162 89 34 0 72 38 72 72 l0 30 103 -7
c95 -6 104 -5 130 15 43 34 36 66 -29 130 -66 65 -149 169 -140 177 3 3 20 -1
38 -8 46 -19 345 -19 408 0 25 8 64 20 88 27 23 8 61 17 85 20 23 4 80 24 126
46 192 88 472 161 801 207 60 8 205 15 242 12 4 -1 -14 -23 -41 -49 -52 -52
-67 -96 -50 -155 14 -51 50 -79 109 -85 61 -6 108 12 121 46 14 36 -4 50 -72
58 -41 5 -59 11 -59 21 0 26 46 60 103 77 95 28 104 84 22 128 -44 24 -104 81
-105 101 0 4 28 7 61 7 49 0 74 -6 121 -30 72 -37 83 -37 104 -4 15 23 16 33
5 92 -6 37 -16 83 -21 102 -5 19 -14 58 -20 85 -6 28 -15 66 -20 85 -5 19 -16
67 -25 105 -9 39 -19 79 -22 91 -5 21 -2 21 169 21 180 1 250 13 256 44 4 21
-39 39 -96 39 -26 0 -117 7 -202 16 -421 42 -706 131 -1245 388 -328 157 -592
330 -738 486 -70 74 -222 270 -282 365 -71 110 -76 179 -48 610 9 138 15 268
15 290 -2 57 -94 330 -188 559 l-24 60 37 38 c39 40 52 46 57 26 3 -14 16 -58
36 -128 8 -25 17 -49 22 -54 4 -6 8 -16 8 -24 0 -24 117 -251 164 -316 50 -70
118 -136 141 -136 8 0 15 2 15 5 0 2 -45 95 -101 206 -112 224 -156 331 -189
464 -13 50 -26 93 -30 97 -3 5 -24 -10 -45 -32z m-1471 -952 c36 -50 7 -128
-47 -128 -59 0 -90 87 -47 130 27 27 75 26 94 -2z m940 -89 c58 -68 9 -158
-65 -119 -22 12 -49 60 -49 87 0 10 7 29 16 41 23 33 66 29 98 -9z m296 -213
c0 -3 -4 -8 -10 -11 -5 -3 -10 -1 -10 4 0 6 5 11 10 11 6 0 10 -2 10 -4z
m-885 -26 c-3 -5 -15 -10 -26 -10 -11 0 -17 5 -14 10 3 6 15 10 26 10 11 0 17
-4 14 -10z m383 -190 c-13 -20 -28 -27 -28 -12 0 10 22 32 32 32 5 0 3 -9 -4
-20z m359 -46 c-3 -3 -12 -4 -19 -1 -8 3 -5 6 6 6 11 1 17 -2 13 -5z m-194
-139 c38 -28 8 -59 -99 -101 -16 -7 -40 -14 -54 -18 -36 -8 -134 -69 -209
-131 -147 -119 -302 -341 -391 -556 -63 -150 -90 -294 -90 -476 0 -262 58
-421 213 -588 37 -40 67 -77 67 -83 0 -5 -7 -15 -15 -22 -41 -34 -208 115
-278 247 -20 38 -48 109 -63 158 -26 84 -27 102 -28 280 0 140 4 210 17 265
14 66 48 184 64 226 3 9 -2 14 -15 14 -27 0 -62 45 -62 80 0 38 35 80 68 80
14 0 35 -9 47 -20 l22 -21 48 83 c69 120 137 211 235 312 136 141 243 215 378
262 77 26 119 29 145 9z m247 -95 c0 -5 -4 -10 -10 -10 -5 0 -10 5 -10 10 0 6
5 10 10 10 6 0 10 -4 10 -10z m-70 -35 c0 -8 -7 -15 -16 -15 -14 0 -14 3 -4
15 7 8 14 15 16 15 2 0 4 -7 4 -15z m135 -65 c3 -5 1 -10 -4 -10 -6 0 -11 5
-11 10 0 6 2 10 4 10 3 0 8 -4 11 -10z m-1580 -200 c7 -12 -10 -20 -48 -23
-32 -3 -36 16 -5 25 35 9 46 9 53 -2z m1659 -296 c19 -18 21 -55 4 -72 -7 -7
-26 -12 -43 -12 -37 0 -55 15 -55 46 0 29 25 54 55 54 13 0 31 -7 39 -16z
m441 -44 c4 -6 10 -41 13 -78 l7 -67 40 -5 c50 -7 65 -16 65 -40 0 -22 -30
-33 -75 -28 -27 3 -30 -1 -42 -44 -8 -25 -21 -49 -31 -53 -21 -8 -43 21 -41
55 2 46 0 49 -48 52 -41 3 -48 6 -51 25 -3 23 9 29 73 35 30 3 30 4 33 68 1
36 4 71 7 78 5 15 41 16 50 2z m-975 -217 c0 -18 -17 -16 -24 3 -8 22 4 40 15
23 5 -8 9 -20 9 -26z m648 -349 c2 -15 -18 -36 -86 -86 -261 -195 -424 -502
-384 -721 17 -90 15 -115 -8 -127 -27 -14 -81 9 -99 43 -11 21 -11 35 -2 71 6
25 11 77 11 116 0 91 13 145 61 248 50 108 113 202 195 291 134 145 302 234
312 165z m1597 -44 c0 -38 -39 -35 -43 3 -3 25 0 28 20 25 17 -2 23 -9 23 -28z
m-947 -32 c29 -29 -7 -86 -47 -73 -26 8 -38 50 -21 70 15 18 51 20 68 3z m750
-46 c3 -18 -1 -22 -22 -22 -19 0 -26 5 -26 18 0 39 43 43 48 4z m269 -88 c7
-18 -17 -38 -31 -24 -11 11 -1 40 14 40 6 0 13 -7 17 -16z m-533 -7 c38 -28
-13 -81 -59 -63 -25 9 -29 35 -10 56 21 23 44 25 69 7z m-2080 -50 c-7 -19
-20 -22 -29 -7 -9 15 16 43 27 32 5 -5 6 -16 2 -25z m1951 -168 c0 -7 -8 -15
-17 -17 -18 -3 -25 18 -11 32 10 10 28 1 28 -15z m613 -91 c-2 -35 -7 -44 -25
-46 -25 -4 -37 23 -27 62 4 19 13 26 31 26 22 0 24 -3 21 -42z m-2554 16 c10
-26 -5 -39 -21 -19 -7 11 -13 22 -13 27 0 15 28 8 34 -8z m2405 -2 c12 -23 -1
-45 -25 -40 -23 4 -31 37 -12 49 19 13 26 11 37 -9z m-3169 -316 c0 -25 -12
-46 -25 -46 -22 0 -25 15 -9 38 17 25 34 29 34 8z m654 -165 c67 -74 -19 -187
-91 -119 -30 28 -32 89 -3 118 25 25 72 26 94 1z m450 -143 c21 -30 20 -50 -5
-82 -38 -48 -111 -23 -111 39 0 60 83 90 116 43z m-1274 -68 c0 -11 -7 -20
-15 -20 -15 0 -21 21 -8 33 12 13 23 7 23 -13z m940 16 c0 -11 -19 -15 -25 -6
-3 5 1 10 9 10 9 0 16 -2 16 -4z m-1165 -94 c0 -18 -20 -15 -23 4 -3 10 1 15
10 12 7 -3 13 -10 13 -16z m205 -103 c0 -11 -4 -17 -10 -14 -5 3 -10 13 -10
21 0 8 5 14 10 14 6 0 10 -9 10 -21z m670 -14 c0 -8 -4 -15 -9 -15 -13 0 -22
16 -14 24 11 11 23 6 23 -9z m-644 -25 c8 0 14 -7 14 -15 0 -17 -23 -19 -51
-4 -22 11 -15 34 8 25 8 -3 21 -6 29 -6z m-311 -110 c-5 -8 -11 -8 -17 -2 -6
6 -7 16 -3 22 5 8 11 8 17 2 6 -6 7 -16 3 -22z m323 -83 c2 -10 -3 -17 -12
-17 -10 0 -16 9 -16 21 0 24 23 21 28 -4z m-308 3 c0 -17 -51 -33 -64 -20 -8
8 -7 14 4 20 20 13 60 13 60 0z"/>
<path d="M7301 4164 c-17 -14 -31 -30 -31 -36 0 -18 75 -86 103 -93 31 -8 57
8 57 35 0 9 -18 36 -40 60 -22 24 -40 47 -40 52 0 15 -18 8 -49 -18z"/>
<path d="M4813 4112 c-23 -20 -72 -75 -108 -121 -58 -73 -66 -88 -61 -114 3
-17 9 -33 12 -36 10 -11 40 17 102 95 35 43 81 97 103 119 78 81 35 132 -48
57z"/>
<path d="M4929 4053 c-100 -103 -129 -164 -93 -194 14 -11 20 -8 48 22 150
170 178 221 126 227 -19 2 -38 -11 -81 -55z"/>
<path d="M7174 4092 c-34 -27 -37 -54 -11 -93 16 -25 31 -35 54 -37 27 -3 33
1 39 22 9 39 -29 126 -56 126 -3 0 -15 -8 -26 -18z"/>
<path d="M5110 4060 c-10 -10 -28 -37 -39 -59 -19 -36 -19 -41 -5 -55 23 -23
31 -20 64 26 30 41 35 62 24 92 -8 21 -20 20 -44 -4z"/>
<path d="M7010 4020 l-21 -21 21 -29 c23 -32 39 -36 71 -20 12 7 19 21 19 40
0 49 -54 66 -90 30z"/>
<path d="M2962 3828 c-7 -13 -22 -35 -34 -50 -18 -24 -20 -31 -10 -53 10 -21
17 -25 35 -19 29 8 65 42 83 76 17 34 17 33 -2 52 -23 23 -59 20 -72 -6z"/>
<path d="M3101 3806 c-6 -7 -18 -38 -26 -67 -12 -47 -12 -57 1 -76 18 -29 29
-29 59 1 15 15 26 41 31 72 6 42 4 50 -16 66 -27 22 -34 22 -49 4z"/>
<path d="M3220 3745 c-14 -38 -12 -81 5 -95 25 -21 49 -7 65 38 17 50 7 75
-34 80 -20 3 -28 -2 -36 -23z"/>
<path d="M6911 3675 c-51 -46 -147 -231 -136 -264 8 -27 50 -55 70 -47 8 3 30
36 47 73 18 37 52 101 76 141 32 53 41 78 36 95 -15 47 -42 48 -93 2z"/>
<path d="M6685 3686 c-32 -14 -110 -120 -100 -136 7 -11 64 -40 80 -40 16 0
85 112 85 138 0 16 -24 54 -33 52 -1 -1 -16 -7 -32 -14z"/>
<path d="M6424 3660 c-11 -4 -43 -34 -70 -67 -26 -32 -72 -83 -101 -114 -28
-31 -55 -69 -59 -85 -10 -41 14 -78 54 -82 29 -3 34 0 48 35 9 20 46 70 83
109 87 93 120 152 103 188 -12 27 -23 30 -58 16z"/>
<path d="M6520 3565 c0 -8 7 -15 15 -15 8 0 15 7 15 15 0 8 -7 15 -15 15 -8 0
-15 -7 -15 -15z"/>
<path d="M5325 3514 c-44 -25 -134 -67 -200 -92 -118 -46 -122 -47 -235 -47
-108 0 -119 2 -185 32 -92 42 -107 45 -139 34 -59 -23 -16 -139 89 -240 68
-66 149 -110 250 -136 107 -27 113 -26 231 78 58 50 151 130 206 177 99 85
117 110 135 189 7 27 -17 51 -52 51 -11 0 -56 -21 -100 -46z"/>
<path d="M3785 3418 c-32 -46 -153 -267 -156 -284 -5 -36 11 -64 37 -64 29 0
71 54 143 185 60 110 68 141 45 166 -23 25 -50 24 -69 -3z"/>
<path d="M3367 3388 c-8 -13 -25 -43 -39 -68 -14 -25 -48 -84 -76 -132 -54
-93 -60 -111 -49 -145 11 -31 32 -35 61 -12 26 21 145 212 178 287 18 40 18
45 4 68 -21 31 -61 32 -79 2z"/>
<path d="M3569 3376 c-31 -35 -129 -253 -129 -286 0 -38 23 -56 55 -42 29 13
60 65 119 199 40 89 44 106 34 128 -15 32 -51 33 -79 1z"/>
<path d="M5771 3091 c-10 -7 -11 -27 -6 -92 l7 -84 -34 -38 c-47 -55 -109 -66
-369 -67 l-205 0 -45 -28 c-24 -16 -50 -36 -58 -46 -20 -24 -90 -71 -150 -101
-41 -21 -63 -25 -140 -25 -112 0 -144 14 -161 67 -19 59 -38 83 -65 83 -51 0
-50 -97 2 -172 42 -62 98 -83 228 -83 102 0 114 2 165 29 78 41 138 82 186
128 l42 40 208 4 c313 6 361 18 440 108 58 66 70 105 54 179 -17 85 -57 125
-99 98z"/>
<path d="M6610 2105 c-37 -13 -408 -201 -447 -226 -26 -16 -32 -66 -9 -75 28
-11 170 26 231 60 33 18 71 36 85 39 36 9 204 181 197 201 -7 19 -11 19 -57 1z"/>
<path d="M0 1070 c1 -258 2 -283 16 -265 8 11 50 74 91 140 42 66 80 122 85
123 4 2 8 8 8 13 0 8 -158 228 -187 259 -11 12 -13 -31 -13 -270z"/>
<path d="M3612 504 c-12 -8 -22 -21 -22 -28 0 -15 56 -68 134 -127 89 -66 159
-133 217 -205 41 -52 56 -64 79 -64 36 0 46 26 27 72 -8 19 -51 73 -96 121
-71 74 -111 109 -254 219 -34 25 -61 29 -85 12z"/>
<path d="M5998 169 c-58 -29 -64 -79 -9 -79 34 0 75 50 66 80 -7 23 -9 23 -57
-1z"/>
<path d="M5802 127 c-15 -18 -52 -99 -52 -115 0 -9 13 -12 47 -10 47 3 47 3
62 51 11 35 12 53 4 65 -13 22 -47 27 -61 9z"/>
<path d="M4131 93 c-6 -21 -11 -50 -11 -65 l0 -28 101 0 101 0 -7 27 c-8 32
-33 63 -50 63 -7 0 -18 -7 -26 -16 -11 -13 -14 -11 -23 18 -9 27 -17 34 -43
36 -29 3 -33 0 -42 -35z"/>
<path d="M5586 88 c-9 -12 -16 -37 -16 -55 0 -32 2 -33 39 -33 36 0 40 3 46
31 14 63 -36 104 -69 57z"/>
</g>
</svg>
