<?xml version="1.0" standalone="no"?>
<!DOCTYPE svg PUBLIC "-//W3C//DTD SVG 20010904//EN"
 "http://www.w3.org/TR/2001/REC-SVG-20010904/DTD/svg10.dtd">
<svg version="1.0" xmlns="http://www.w3.org/2000/svg"
 width="512.000000pt" height="512.000000pt" viewBox="0 0 512.000000 512.000000"
 preserveAspectRatio="xMidYMid meet">
<metadata>
Created by potrace 1.14, written by Peter Selinger 2001-2017
</metadata>
<g transform="translate(0.000000,512.000000) scale(0.100000,-0.100000)"
fill="#000000" stroke="none">
<path d="M1898 4663 c-37 -41 -130 -226 -168 -332 -44 -126 -51 -201 -26 -283
l13 -46 -33 -15 c-24 -12 -42 -33 -63 -75 -60 -118 -182 -195 -313 -196 -84
-1 -99 11 -101 85 -2 46 -5 54 -22 54 -13 0 -22 -10 -28 -31 -14 -47 45 -180
90 -207 45 -26 128 -47 187 -47 60 0 56 -6 -16 -25 -31 -8 -126 -49 -213 -91
-172 -84 -191 -87 -273 -45 -49 25 -69 49 -87 102 l-15 44 6 -39 c10 -71 59
-117 151 -140 l47 -12 -52 -32 c-29 -18 -54 -32 -57 -32 -17 0 -181 -128 -220
-172 -70 -77 -79 -103 -65 -196 23 -157 39 -199 93 -258 44 -46 62 -78 83
-145 4 -10 -25 -42 -83 -95 -135 -122 -151 -133 -239 -150 -124 -24 -223 -1
-300 72 -26 24 -49 44 -51 44 -2 0 3 -13 12 -29 17 -34 64 -72 115 -94 32 -14
33 -15 9 -16 -14 -1 -29 3 -35 8 -5 5 -19 5 -33 0 l-24 -9 38 -34 c28 -26 52
-36 94 -43 l56 -9 -70 -24 c-59 -21 -89 -25 -187 -25 -116 0 -118 0 -118 -22
0 -15 6 -23 18 -23 20 0 182 -71 182 -80 0 -4 -10 -11 -22 -17 -13 -6 -58 -38
-100 -72 l-78 -61 0 -159 0 -159 54 -17 c38 -12 53 -21 49 -31 -3 -8 4 -30 16
-50 21 -35 21 -38 6 -111 -9 -42 -17 -109 -18 -150 l-2 -75 -33 39 c-19 21
-42 54 -52 73 l-19 35 -1 -41 c0 -38 5 -46 71 -108 71 -67 104 -85 77 -44 -28
42 -34 178 -9 178 4 0 13 -19 20 -42 20 -69 58 -124 163 -242 16 -17 33 -45
39 -64 9 -28 8 -36 -8 -54 -35 -41 -161 -82 -305 -103 -62 -8 -68 -35 -9 -35
77 0 270 52 310 83 10 8 16 7 26 -6 17 -23 28 -22 16 2 -8 14 -5 29 9 59 22
45 24 56 11 47 -5 -3 -15 10 -21 30 -6 19 -32 58 -58 86 l-47 52 -4 85 c-5
116 35 307 66 319 51 20 145 -30 255 -133 24 -22 49 -39 56 -36 7 2 12 -6 12
-20 0 -15 3 -19 8 -10 12 18 56 9 60 -13 3 -14 -1 -17 -22 -11 -38 10 -32 0
22 -30 26 -15 55 -34 65 -42 15 -13 17 -13 17 0 0 20 27 31 36 16 4 -6 0 -16
-9 -23 -24 -17 -21 -27 13 -60 l29 -28 -21 -39 c-12 -21 -18 -41 -15 -45 4 -3
28 -7 54 -8 29 0 48 -6 51 -14 3 -9 -2 -11 -15 -7 -15 5 -21 -2 -32 -42 -8
-26 -17 -51 -22 -57 -17 -23 -32 -140 -26 -217 6 -96 -8 -135 -77 -206 -36
-38 -39 -44 -24 -53 9 -5 33 -32 53 -60 l38 -50 30 28 c24 23 28 24 19 7 -14
-27 -136 -124 -157 -124 -8 0 -21 15 -29 33 -28 67 -115 118 -281 163 -169 46
-435 36 -435 -16 0 -17 4 -17 53 -4 61 16 221 18 298 4 30 -6 92 -22 139 -37
l85 -27 -56 -6 c-32 -4 -86 -21 -120 -37 -73 -34 -203 -130 -269 -197 -40 -42
-42 -46 -21 -46 14 0 46 21 83 55 114 106 247 182 331 192 29 3 60 10 70 15
14 7 26 1 55 -30 20 -21 45 -51 55 -65 27 -41 64 -36 133 18 39 30 63 43 74
38 35 -16 142 -15 188 2 60 23 111 35 128 28 10 -4 2 -34 -31 -130 -43 -119
-44 -124 -23 -121 17 2 28 21 53 94 40 113 41 115 68 109 206 -47 288 -72 422
-132 146 -65 152 -67 247 -71 l96 -3 12 35 c11 36 12 36 67 36 l55 0 -6 -35
-7 -35 234 0 233 0 127 36 c71 19 149 44 174 55 25 11 48 18 50 15 2 -2 -7
-27 -21 -55 l-26 -51 74 0 74 0 46 139 c25 76 46 148 46 160 0 11 2 21 4 21
26 0 115 -24 151 -41 43 -20 46 -23 40 -53 -4 -17 -20 -55 -36 -83 -43 -78
-36 -113 23 -113 52 0 107 41 151 113 10 15 25 27 34 27 9 0 54 -39 100 -86
61 -63 88 -85 104 -82 18 3 7 18 -73 100 -107 113 -134 125 -173 81 -88 -99
-104 -113 -129 -113 -32 0 -32 3 -2 54 13 23 26 54 30 70 6 23 11 27 31 23 30
-5 33 9 4 18 -17 6 -20 13 -16 35 16 80 18 130 7 165 -18 53 -144 316 -189
394 -61 103 -91 186 -116 311 -12 63 -41 184 -64 268 -22 84 -44 172 -48 195
-3 23 -12 51 -19 62 -8 12 -18 52 -24 90 -6 39 -17 97 -24 130 -8 38 -10 64
-4 72 6 7 5 19 -1 31 -17 33 -60 206 -86 356 -14 77 -28 151 -30 164 -5 21 -3
22 74 22 80 0 111 6 111 20 0 11 -112 19 -159 10 -40 -7 -42 -6 -37 14 3 11 8
51 12 88 l7 66 65 -54 c36 -30 70 -54 76 -54 5 0 24 -13 40 -30 17 -16 54 -51
81 -77 55 -53 76 -91 68 -121 -2 -11 3 -34 12 -51 52 -102 118 -428 102 -511
-15 -84 -3 -159 40 -240 26 -50 48 -114 67 -195 71 -308 102 -421 153 -565 30
-85 62 -184 72 -220 12 -46 32 -85 66 -131 28 -37 70 -95 95 -130 69 -95 145
-170 254 -249 26 -19 65 -50 86 -67 20 -18 47 -33 59 -33 21 0 21 1 5 25 l-16
25 44 0 c56 0 140 25 189 56 21 13 44 24 50 24 12 0 116 -78 143 -109 11 -11
31 -21 45 -21 25 0 24 1 -14 41 -22 22 -66 58 -99 79 l-58 38 106 74 c143 98
218 135 304 150 69 12 140 6 220 -18 19 -5 22 -3 22 18 0 20 -5 25 -27 26 -16
1 -70 4 -121 8 -161 10 -265 -34 -485 -208 -27 -21 -54 -38 -60 -38 -7 0 -18
-9 -24 -19 -17 -28 -134 -81 -192 -88 -41 -5 -55 -2 -78 16 -189 145 -263 207
-263 221 0 3 41 4 91 2 l92 -5 -29 39 -28 39 33 -30 c21 -19 30 -24 26 -12 -4
10 -3 17 4 17 6 0 14 0 19 0 4 0 7 -10 7 -22 0 -12 6 -23 13 -26 6 -2 12 1 12
7 0 7 26 10 70 8 51 -1 73 2 79 12 6 10 13 10 29 2 16 -9 23 -7 36 12 14 20
17 20 28 6 19 -27 75 -4 80 32 3 20 0 29 -9 29 -7 0 -13 5 -13 10 0 6 5 10 10
10 15 0 12 36 -4 49 -8 7 -45 17 -82 22 -43 6 -85 20 -114 37 -25 15 -56 27
-70 27 -16 0 -25 6 -25 15 0 9 -31 45 -68 82 -70 68 -73 73 -57 98 8 13 13 13
41 -3 47 -26 117 -22 167 10 l43 28 -39 8 c-33 6 -39 11 -35 27 6 22 28 27 37
8 3 -7 3 4 0 25 -6 37 10 54 22 22 5 -12 10 -13 20 -4 11 9 15 8 20 -4 8 -21
50 -2 58 25 4 16 10 19 28 15 18 -5 38 5 84 41 76 59 84 66 147 126 29 28 101
94 162 149 l109 99 45 -7 c24 -4 82 -19 128 -34 63 -21 83 -24 83 -14 0 19
-82 52 -195 78 -26 6 -28 8 -12 17 10 5 29 7 42 4 28 -7 42 19 18 33 -15 8
-15 10 0 25 9 9 20 15 24 14 4 -2 34 15 65 37 l58 40 0 168 c0 97 -4 166 -9
163 -5 -3 -12 1 -15 9 -3 9 1 18 9 21 11 5 15 22 15 66 0 49 -3 59 -15 54 -8
-3 -16 -2 -16 2 -10 52 2 77 20 45 7 -13 10 17 10 101 1 108 -1 117 -17 111
-30 -13 -99 -18 -146 -11 -36 6 -64 23 -143 86 -54 43 -104 89 -111 102 -17
34 -85 229 -80 233 2 2 31 -22 64 -54 71 -66 234 -178 314 -215 53 -25 120
-35 120 -18 0 4 -15 8 -34 9 -18 1 -54 10 -79 21 -55 24 -198 118 -250 164
-143 125 -149 133 -193 223 -24 49 -44 93 -44 98 0 17 63 -29 110 -80 33 -36
58 -77 79 -130 33 -84 42 -88 14 -7 -30 90 -105 184 -175 220 -18 9 -61 43
-96 75 -34 32 -76 66 -92 74 -36 19 -37 23 -5 23 15 0 30 -10 40 -24 8 -13 23
-24 32 -24 9 0 31 -13 48 -30 17 -16 45 -32 62 -36 26 -5 32 -3 38 15 10 34
-2 56 -63 113 -74 68 -171 117 -245 125 -39 4 -57 10 -57 19 0 17 -12 18 -27
3 -34 -34 -255 -52 -318 -25 -29 12 -29 13 36 19 105 11 239 64 363 144 82 52
146 110 146 132 0 9 -19 -3 -47 -31 -60 -58 -181 -133 -298 -183 -82 -36 -98
-39 -180 -40 l-90 0 -37 56 c-20 30 -61 119 -91 197 l-54 142 67 -6 c49 -5 76
-3 101 8 19 9 52 20 75 27 65 18 107 79 79 118 -12 16 -18 13 -72 -38 l-59
-57 -50 8 c-86 14 -146 30 -166 44 -11 8 -41 63 -67 123 -25 60 -60 131 -77
159 -17 27 -37 66 -44 86 -9 25 -18 34 -28 30 -12 -4 -14 -1 -8 13 4 13 -3 30
-24 56 -16 21 -30 48 -30 61 0 32 -38 232 -56 294 -13 47 -45 94 -62 94 -18 0
-73 -43 -139 -108 l-72 -70 -98 41 c-94 39 -141 46 -214 35 -9 -2 -31 17 -50
42 -35 46 -69 61 -93 41 -9 -8 -30 -8 -70 0 -59 11 -76 7 -76 -16 0 -8 -17
-16 -41 -20 -80 -14 -155 -55 -142 -79 3 -6 3 -8 -1 -4 -8 6 -37 -15 -88 -64
-19 -18 -26 -32 -22 -45 16 -46 -48 63 -88 152 -48 105 -69 123 -100 88z m632
-94 c0 -6 -4 -7 -10 -4 -5 3 -10 11 -10 16 0 6 5 7 10 4 6 -3 10 -11 10 -16z
m564 -31 c-4 -7 -24 -38 -44 -68 -71 -105 -140 -267 -140 -327 0 -35 -14 -28
-37 20 l-21 44 29 59 c31 63 88 143 164 231 44 50 65 68 49 41z m-1257 -100
c-13 -50 -19 -109 -20 -188 -1 -127 14 -187 49 -205 21 -10 19 -14 -47 -88
l-68 -77 -21 40 -20 40 29 0 c16 0 32 4 35 8 3 5 -6 30 -19 57 -41 80 -36 165
20 316 39 107 68 169 78 169 2 0 -5 -33 -16 -72z m1418 -74 c9 -54 17 -135 17
-179 0 -147 -20 -341 -42 -402 -31 -89 -23 -116 23 -75 20 17 20 16 13 -13
-12 -49 -40 -90 -65 -93 -31 -5 -82 45 -132 129 -42 70 -47 89 -25 89 29 0 74
51 94 107 28 76 69 319 78 463 8 127 13 124 39 -26z m-760 96 c3 -5 1 -10 -4
-10 -6 0 -11 5 -11 10 0 6 2 10 4 10 3 0 8 -4 11 -10z m135 6 c0 -11 -19 -15
-25 -6 -3 5 1 10 9 10 9 0 16 -2 16 -4z m-557 -110 l44 -67 -56 -54 -56 -54
-3 87 c-3 74 12 171 25 159 1 -2 22 -34 46 -71z m477 58 c0 -8 -4 -12 -10 -9
-5 3 -10 10 -10 16 0 5 5 9 10 9 6 0 10 -7 10 -16z m120 -60 c0 -8 -4 -12 -10
-9 -5 3 -10 10 -10 16 0 5 5 9 10 9 6 0 10 -7 10 -16z m-80 -24 c0 -5 -4 -10
-10 -10 -5 0 -10 5 -10 10 0 6 5 10 10 10 6 0 10 -4 10 -10z m-410 -210 c0 -5
-2 -10 -4 -10 -3 0 -8 5 -11 10 -3 6 -1 10 4 10 6 0 11 -4 11 -10z m-20 -24
c0 -3 -4 -8 -10 -11 -5 -3 -10 -1 -10 4 0 6 5 11 10 11 6 0 10 -2 10 -4z m348
-45 c59 -39 202 -212 202 -243 0 -5 -31 -8 -69 -8 -107 0 -117 -6 -130 -86 -9
-52 -9 -74 0 -96 15 -36 29 -26 63 45 41 86 57 99 117 95 l51 -3 34 -60 c18
-33 43 -88 54 -122 12 -35 26 -65 31 -68 23 -15 -2 -120 -31 -128 -9 -2 -25 2
-35 9 -10 7 -22 11 -26 8 -21 -13 -5 -37 52 -79 50 -36 69 -45 103 -45 23 0
51 6 61 14 16 12 21 9 48 -20 16 -19 35 -34 43 -34 8 0 14 -4 14 -10 0 -13 -6
-13 -30 2 -10 7 -23 8 -27 4 -4 -5 -1 -11 7 -14 16 -6 -53 -29 -120 -40 -35
-6 -45 -12 -43 -26 1 -12 -4 -16 -14 -12 -9 4 -21 3 -27 -2 -6 -5 -38 -15 -71
-22 -33 -7 -93 -28 -133 -46 -40 -19 -80 -34 -90 -34 -9 0 -37 -14 -62 -30
-56 -37 -75 -37 -131 -1 -24 16 -61 32 -82 35 -21 4 -54 16 -73 27 -20 11 -40
16 -46 13 -6 -4 -20 6 -32 20 -20 26 -24 27 -66 17 -24 -5 -46 -8 -48 -6 -2 2
2 13 8 25 15 27 8 34 -52 50 -25 6 -61 25 -80 41 l-33 28 30 1 c39 0 59 14 52
34 -5 12 -20 16 -58 16 l-52 0 41 38 c23 22 42 44 42 50 0 7 7 12 15 12 8 0
15 6 15 13 0 7 16 13 40 14 22 0 40 -1 40 -4 0 -2 -16 -25 -35 -50 -34 -44
-37 -63 -11 -63 20 0 92 67 82 77 -5 4 -11 2 -13 -5 -3 -7 -14 -17 -25 -23
-21 -11 -21 -11 0 18 12 17 19 33 16 36 -10 10 31 24 90 31 62 7 126 38 126
61 0 23 -18 26 -57 9 -75 -32 -193 -9 -193 38 0 12 8 30 18 41 9 10 33 49 52
86 32 61 38 66 71 69 l36 3 12 -55 c7 -31 10 -60 6 -66 -7 -12 12 -50 25 -50
6 0 10 9 10 19 0 11 4 21 9 23 5 2 12 35 16 75 l7 72 -39 10 c-21 6 -50 12
-65 13 -26 3 -25 4 58 138 47 74 92 141 101 148 10 6 45 12 80 12 58 0 70 -4
121 -39z m322 -27 c0 -8 -5 -12 -10 -9 -6 4 -8 11 -5 16 9 14 15 11 15 -7z
m-860 -24 c0 -5 -5 -10 -11 -10 -5 0 -7 5 -4 10 3 6 8 10 11 10 2 0 4 -4 4
-10z m1420 -15 c11 7 39 -21 40 -37 0 -15 -31 -8 -47 11 -9 11 -22 17 -29 14
-8 -3 -14 -1 -14 4 0 17 13 23 26 12 7 -6 18 -8 24 -4z m-1360 -5 c0 -5 -2
-10 -4 -10 -3 0 -8 5 -11 10 -3 6 -1 10 4 10 6 0 11 -4 11 -10z m1012 -5 c0
-5 -5 -11 -11 -13 -6 -2 -11 4 -11 13 0 9 5 15 11 13 6 -2 11 -8 11 -13z m398
5 c0 -5 -4 -10 -10 -10 -5 0 -10 5 -10 10 0 6 5 10 10 10 6 0 10 -4 10 -10z
m-700 -41 c0 -6 -4 -7 -10 -4 -5 3 -10 11 -10 16 0 6 5 7 10 4 6 -3 10 -11 10
-16z m105 -39 c3 -5 1 -10 -4 -10 -6 0 -11 5 -11 10 0 6 2 10 4 10 3 0 8 -4
11 -10z m-994 -31 c-5 -13 -10 -19 -10 -12 -1 15 10 45 15 40 3 -2 0 -15 -5
-28z m1589 15 c0 -8 7 -22 15 -30 21 -21 19 -37 -3 -23 -20 12 -43 55 -34 64
10 10 22 5 22 -11z m-1462 -6 c-2 -6 -10 -14 -16 -16 -7 -2 -10 2 -6 12 7 18
28 22 22 4z m907 -18 c3 -5 1 -10 -4 -10 -6 0 -11 5 -11 10 0 6 2 10 4 10 3 0
8 -4 11 -10z m518 -20 c-3 -11 -12 -20 -19 -20 -17 0 -17 5 -3 31 13 24 29 16
22 -11z m-1409 -1 c-3 -5 -10 -7 -15 -3 -5 3 -7 10 -3 15 3 5 10 7 15 3 5 -3
7 -10 3 -15z m-46 -8 c3 -8 -1 -12 -9 -9 -7 2 -15 10 -17 17 -3 8 1 12 9 9 7
-2 15 -10 17 -17z m-314 -6 c-4 -8 -10 -12 -15 -9 -11 6 -2 24 11 24 5 0 7 -7
4 -15z m58 0 c0 -5 -5 -11 -11 -13 -6 -2 -11 4 -11 13 0 9 5 15 11 13 6 -2 11
-8 11 -13z m1752 -16 c-3 -5 -10 -7 -15 -3 -5 3 -7 10 -3 15 3 5 10 7 15 3 5
-3 7 -10 3 -15z m-457 -15 c-3 -4 -14 -3 -24 0 -15 6 -15 8 -3 16 16 10 39 -4
27 -16z m503 1 c6 -8 10 -22 7 -32 -3 -15 -6 -14 -15 7 -6 14 -11 20 -11 14
-1 -15 -31 -14 -31 1 0 27 30 34 50 10z m-1886 -29 c-3 -7 -14 -12 -24 -13
-20 -2 -19 6 3 35 8 10 12 10 18 1 4 -7 5 -17 3 -23z m151 24 c3 -5 1 -10 -4
-10 -6 0 -11 5 -11 10 0 6 2 10 4 10 3 0 8 -4 11 -10z m1585 -11 c0 -5 -7 -9
-15 -9 -15 0 -20 12 -9 23 8 8 24 -1 24 -14z m-1430 1 c0 -5 -4 -10 -10 -10
-5 0 -10 5 -10 10 0 6 5 10 10 10 6 0 10 -4 10 -10z m-180 -20 c0 -5 -5 -10
-11 -10 -5 0 -7 5 -4 10 3 6 8 10 11 10 2 0 4 -4 4 -10z m100 0 c0 -5 -5 -10
-11 -10 -5 0 -7 5 -4 10 3 6 8 10 11 10 2 0 4 -4 4 -10z m1090 6 c0 -3 -4 -8
-10 -11 -5 -3 -10 -1 -10 4 0 6 5 11 10 11 6 0 10 -2 10 -4z m60 -6 c0 -5 -5
-10 -11 -10 -5 0 -7 5 -4 10 3 6 8 10 11 10 2 0 4 -4 4 -10z m-1130 -17 c-1
-15 -30 -46 -37 -40 -3 4 2 16 13 26 22 23 24 24 24 14z m-336 -28 c-4 -8 -12
-15 -19 -15 -7 0 -15 -9 -18 -20 -3 -11 -11 -20 -17 -20 -7 0 -10 6 -7 14 3 8
1 17 -6 19 -7 2 2 11 18 20 38 21 56 21 49 2z m1956 5 c0 -5 -4 -10 -9 -10 -6
0 -13 5 -16 10 -3 6 1 10 9 10 9 0 16 -4 16 -10z m50 -30 c0 -5 -4 -10 -10
-10 -5 0 -10 5 -10 10 0 6 5 10 10 10 6 0 10 -4 10 -10z m23 -27 c2 -5 7 -21
11 -36 5 -22 4 -28 -6 -24 -7 2 -12 9 -11 15 1 5 -11 9 -27 8 -36 -3 -49 21
-17 34 28 11 45 12 50 3z m-1713 -12 c0 -12 -20 -25 -27 -18 -7 7 6 27 18 27
5 0 9 -4 9 -9z m1580 -1 c0 -5 -4 -10 -9 -10 -6 0 -13 5 -16 10 -3 6 1 10 9
10 9 0 16 -4 16 -10z m-1960 -21 c0 -5 -4 -9 -10 -9 -5 0 -10 7 -10 16 0 8 5
12 10 9 6 -3 10 -10 10 -16z m340 6 c0 -8 -2 -15 -4 -15 -2 0 -6 7 -10 15 -3
8 -1 15 4 15 6 0 10 -7 10 -15z m40 -25 c0 -5 -4 -10 -10 -10 -5 0 -10 5 -10
10 0 6 5 10 10 10 6 0 10 -4 10 -10z m1760 -15 c0 -16 -6 -25 -15 -25 -16 0
-19 9 -9 34 9 25 24 19 24 -9z m-590 -9 c0 -3 -4 -8 -10 -11 -5 -3 -10 -1 -10
4 0 6 5 11 10 11 6 0 10 -2 10 -4z m130 -46 c0 -5 -2 -10 -4 -10 -3 0 -8 5
-11 10 -3 6 -1 10 4 10 6 0 11 -4 11 -10z m504 -45 c3 -9 0 -15 -9 -15 -8 0
-15 7 -15 15 0 8 4 15 9 15 5 0 11 -7 15 -15z m-114 -10 c0 -8 -7 -15 -15 -15
-8 0 -15 7 -15 15 0 8 7 15 15 15 8 0 15 -7 15 -15z m-500 -21 c0 -15 -21 -15
-32 1 -8 11 12 26 24 19 4 -3 8 -12 8 -20z m-1576 -30 c10 -26 7 -46 -6 -42
-7 3 -13 17 -13 31 -1 30 10 36 19 11z m2089 0 c3 -3 3 -12 0 -20 -4 -11 -9
-12 -19 -3 -8 6 -14 15 -14 20 0 10 24 12 33 3z m-2342 -57 c-13 -13 -26 -3
-16 12 3 6 11 8 17 5 6 -4 6 -10 -1 -17z m1869 13 c0 -5 -5 -10 -11 -10 -5 0
-7 5 -4 10 3 6 8 10 11 10 2 0 4 -4 4 -10z m-1650 -15 c0 -8 -4 -15 -10 -15
-5 0 -10 7 -10 15 0 8 5 15 10 15 6 0 10 -7 10 -15z m-90 -5 c0 -5 -7 -10 -15
-10 -8 0 -15 5 -15 10 0 6 7 10 15 10 8 0 15 -4 15 -10z m30 -5 c0 -8 -4 -15
-10 -15 -5 0 -10 7 -10 15 0 8 5 15 10 15 6 0 10 -7 10 -15z m-210 -5 c0 -5
-4 -10 -10 -10 -5 0 -10 5 -10 10 0 6 5 10 10 10 6 0 10 -4 10 -10z m2210 -10
c8 -5 11 -12 8 -16 -10 -9 -38 3 -38 16 0 12 10 13 30 0z m-175 -31 c-6 -9
-35 -1 -35 10 0 4 3 11 7 14 8 9 34 -13 28 -24z m65 21 c0 -5 -4 -10 -10 -10
-5 0 -10 5 -10 10 0 6 5 10 10 10 6 0 10 -4 10 -10z m-1944 -39 c-3 -5 3 -20
14 -34 13 -16 16 -28 10 -32 -14 -9 -32 5 -26 20 3 8 1 15 -4 17 -9 3 -13 23
-11 53 1 18 2 19 12 2 5 -9 8 -21 5 -26z m-219 3 c-9 -9 -28 6 -21 18 4 6 10
6 17 -1 6 -6 8 -13 4 -17z m130 0 c-9 -9 -28 6 -21 18 4 6 10 6 17 -1 6 -6 8
-13 4 -17z m1746 9 c-7 -2 -19 -2 -25 0 -7 3 -2 5 12 5 14 0 19 -2 13 -5z
m265 -5 c-6 -18 -28 -21 -28 -4 0 9 7 16 16 16 9 0 14 -5 12 -12z m-2108 -8
c0 -5 -4 -10 -10 -10 -5 0 -10 5 -10 10 0 6 5 10 10 10 6 0 10 -4 10 -10z
m-50 -20 c0 -5 -4 -10 -10 -10 -5 0 -10 5 -10 10 0 6 5 10 10 10 6 0 10 -4 10
-10z m610 1 c0 -6 -4 -13 -10 -16 -5 -3 -10 1 -10 9 0 9 5 16 10 16 6 0 10 -4
10 -9z m1650 -1 c0 -5 6 -10 14 -10 22 0 15 -54 -7 -58 -20 -4 -24 24 -4 31 6
2 8 8 4 13 -5 5 -15 1 -22 -10 -13 -17 -14 -16 -11 10 4 35 4 34 16 34 6 0 10
-4 10 -10z m150 -5 c0 -9 -6 -12 -15 -9 -8 4 -15 10 -15 15 0 5 7 9 15 9 8 0
15 -7 15 -15z m50 -1 c0 -8 -4 -12 -10 -9 -5 3 -10 10 -10 16 0 5 5 9 10 9 6
0 10 -7 10 -16z m-2301 -40 c-14 -17 -49 -13 -49 4 0 8 6 12 14 9 8 -3 17 2
21 11 5 14 7 14 15 2 5 -9 5 -19 -1 -26z m215 30 c20 -8 21 -24 2 -24 -8 0
-16 -5 -18 -12 -2 -6 -10 -8 -16 -4 -9 5 -9 13 -2 27 12 21 12 21 34 13z
m1846 -4 c0 -5 -5 -10 -11 -10 -5 0 -7 5 -4 10 3 6 8 10 11 10 2 0 4 -4 4 -10z
m-2120 -20 c0 -5 -4 -10 -10 -10 -5 0 -10 5 -10 10 0 6 5 10 10 10 6 0 10 -4
10 -10z m104 -11 c-3 -5 -10 -7 -15 -3 -5 3 -7 10 -3 15 3 5 10 7 15 3 5 -3 7
-10 3 -15z m-233 -22 c-13 -13 -26 -3 -16 12 3 6 11 8 17 5 6 -4 6 -10 -1 -17z
m329 8 c0 -8 -4 -15 -8 -15 -5 0 -9 7 -9 15 0 8 4 15 9 15 4 0 8 -7 8 -15z
m350 -1 c0 -8 -4 -12 -10 -9 -5 3 -10 10 -10 16 0 5 5 9 10 9 6 0 10 -7 10
-16z m1504 8 c6 -10 -5 -26 -21 -29 -7 -2 -13 3 -13 10 0 24 23 36 34 19z
m329 -22 c3 -11 1 -23 -4 -26 -5 -3 -9 -1 -9 5 0 5 -3 16 -6 25 -3 9 -2 16 4
16 5 0 12 -9 15 -20z m-2653 0 c0 -5 -4 -10 -10 -10 -5 0 -10 5 -10 10 0 6 5
10 10 10 6 0 10 -4 10 -10z m190 0 c0 -5 -4 -10 -10 -10 -5 0 -10 5 -10 10 0
6 5 10 10 10 6 0 10 -4 10 -10z m209 -9 c15 -27 -11 -35 -33 -10 -21 25 -20
29 4 29 10 0 24 -9 29 -19z m161 9 c0 -5 -4 -10 -10 -10 -5 0 -10 5 -10 10 0
6 5 10 10 10 6 0 10 -4 10 -10z m-515 -20 c3 -5 1 -10 -4 -10 -6 0 -11 5 -11
10 0 6 2 10 4 10 3 0 8 -4 11 -10z m565 0 c0 -5 -7 -10 -15 -10 -8 0 -15 5
-15 10 0 6 7 10 15 10 8 0 15 -4 15 -10z m1780 -4 c0 -15 -27 -25 -47 -19 -7
2 -9 11 -6 19 7 18 53 19 53 0z m140 4 c0 -5 -5 -10 -11 -10 -5 0 -7 5 -4 10
3 6 8 10 11 10 2 0 4 -4 4 -10z m78 -13 c2 -10 0 -17 -5 -17 -13 1 -43 27 -37
33 11 10 39 0 42 -16z m-1927 -20 c-8 -8 -11 -7 -11 4 0 20 13 34 18 19 3 -7
-1 -17 -7 -23z m-461 2 c0 -5 -7 -9 -15 -9 -15 0 -20 12 -9 23 8 8 24 -1 24
-14z m120 1 c0 -5 -5 -10 -11 -10 -5 0 -7 5 -4 10 3 6 8 10 11 10 2 0 4 -4 4
-10z m-302 -11 c-2 -6 -8 -10 -13 -10 -5 0 -11 4 -13 10 -2 6 4 11 13 11 9 0
15 -5 13 -11z m114 -4 c0 -5 -5 -11 -11 -13 -6 -2 -11 4 -11 13 0 9 5 15 11
13 6 -2 11 -8 11 -13z m138 5 c0 -5 -4 -10 -10 -10 -5 0 -10 5 -10 10 0 6 5
10 10 10 6 0 10 -4 10 -10z m781 -8 c-7 -2 -18 1 -23 6 -8 8 -4 9 13 5 13 -4
18 -8 10 -11z m1629 8 c0 -5 -5 -10 -11 -10 -5 0 -7 5 -4 10 3 6 8 10 11 10 2
0 4 -4 4 -10z m-188 -20 c-10 -12 -18 -16 -21 -9 -2 6 3 15 10 20 24 15 29 10
11 -11z m898 -1 c0 -5 -9 -9 -20 -9 -22 0 -27 16 -7 23 15 5 27 -1 27 -14z
m108 3 c2 -7 -3 -12 -12 -12 -9 0 -16 7 -16 16 0 17 22 14 28 -4z m-3258 -2
c0 -5 -4 -10 -10 -10 -5 0 -10 5 -10 10 0 6 5 10 10 10 6 0 10 -4 10 -10z m80
0 c0 -5 -5 -10 -11 -10 -5 0 -7 5 -4 10 3 6 8 10 11 10 2 0 4 -4 4 -10z m290
0 c0 -5 -5 -10 -11 -10 -5 0 -7 5 -4 10 3 6 8 10 11 10 2 0 4 -4 4 -10z m1790
-16 c0 -8 -6 -14 -14 -14 -18 0 -29 27 -13 33 16 6 27 -1 27 -19z m-2310 6 c0
-5 -4 -10 -10 -10 -5 0 -10 5 -10 10 0 6 5 10 10 10 6 0 10 -4 10 -10z m284
-22 c-3 -4 -12 -8 -20 -8 -15 0 -15 21 1 32 11 8 26 -12 19 -24z m-314 6 c0
-8 -5 -12 -10 -9 -6 4 -8 11 -5 16 9 14 15 11 15 -7z m400 1 c0 -8 -7 -15 -15
-15 -8 0 -15 7 -15 15 0 8 7 15 15 15 8 0 15 -7 15 -15z m90 5 c0 -5 -4 -10
-10 -10 -5 0 -10 5 -10 10 0 6 5 10 10 10 6 0 10 -4 10 -10z m241 -5 c1 -17
-18 -17 -25 0 -4 11 -1 15 10 13 8 -2 15 -7 15 -13z m1769 5 c0 -5 -4 -10 -10
-10 -5 0 -10 5 -10 10 0 6 5 10 10 10 6 0 10 -4 10 -10z m120 -40 c0 -6 -10
-10 -22 -8 -22 3 -32 29 -20 51 5 10 42 -28 42 -43z m-2670 29 c0 -6 -5 -19
-11 -30 -15 -28 -29 -14 -16 16 12 25 27 33 27 14z m730 -42 c0 -5 -6 -4 -13
2 -8 6 -17 8 -20 4 -4 -3 -7 0 -7 9 0 24 14 30 27 12 7 -10 13 -22 13 -27z
m1550 8 c0 -7 -7 -12 -15 -11 -20 3 -28 13 -21 25 9 13 36 3 36 -14z m235 15
c3 -5 1 -10 -4 -10 -6 0 -11 5 -11 10 0 6 2 10 4 10 3 0 8 -4 11 -10z m325 -4
c0 -3 -4 -8 -10 -11 -5 -3 -10 -1 -10 4 0 6 5 11 10 11 6 0 10 -2 10 -4z
m-380 -20 c0 -7 -6 -19 -14 -25 -19 -16 -32 5 -16 24 16 19 30 19 30 1z
m-2250 -5 c0 -11 -31 -24 -39 -16 -3 3 1 10 9 15 19 12 30 12 30 1z m76 -29
c-4 -3 -11 0 -16 8 -15 24 -11 33 6 15 9 -9 13 -19 10 -23z m54 23 c0 -8 -4
-15 -10 -15 -5 0 -10 5 -10 11 0 5 -4 7 -10 4 -5 -3 -10 -1 -10 4 0 6 9 11 20
11 11 0 20 -7 20 -15z m2351 -22 c-10 -17 -10 -16 -11 3 0 23 13 41 18 25 2
-6 -1 -18 -7 -28z m-2541 7 c0 -11 0 -23 1 -27 0 -4 -4 -9 -10 -11 -6 -2 -11
10 -11 27 0 17 5 31 10 31 6 0 10 -9 10 -20z m3001 -3 c-13 -13 -26 -3 -16 12
3 6 11 8 17 5 6 -4 6 -10 -1 -17z m-495 -25 c-4 -3 -11 0 -16 8 -15 24 -11 33
6 15 9 -9 13 -19 10 -23z m924 22 c0 -8 -4 -12 -10 -9 -5 3 -10 10 -10 16 0 5
5 9 10 9 6 0 10 -7 10 -16z m-3080 -4 c0 -5 -4 -10 -10 -10 -5 0 -10 5 -10 10
0 6 5 10 10 10 6 0 10 -4 10 -10z m268 -9 c3 -8 -1 -12 -9 -9 -7 2 -15 10 -17
17 -3 8 1 12 9 9 7 -2 15 -10 17 -17z m2107 -11 c-6 -9 -9 -9 -16 1 -10 17 0
34 13 21 6 -6 7 -16 3 -22z m-2495 -6 c0 -13 -11 -14 -60 -5 -3 1 6 7 20 15
28 14 40 12 40 -10z m2848 8 c2 -7 -3 -12 -12 -12 -9 0 -16 7 -16 16 0 17 22
14 28 -4z m-3148 -7 c0 -8 -4 -15 -10 -15 -5 0 -10 7 -10 15 0 8 5 15 10 15 6
0 10 -7 10 -15z m400 -6 c0 -5 -4 -9 -10 -9 -5 0 -10 7 -10 16 0 8 5 12 10 9
6 -3 10 -10 10 -16z m2450 11 c0 -5 -4 -10 -10 -10 -5 0 -10 5 -10 10 0 6 5
10 10 10 6 0 10 -4 10 -10z m495 0 c3 -5 1 -10 -4 -10 -6 0 -11 5 -11 10 0 6
2 10 4 10 3 0 8 -4 11 -10z m-935 -20 c0 -5 -4 -10 -10 -10 -5 0 -10 5 -10 10
0 6 5 10 10 10 6 0 10 -4 10 -10z m100 0 c0 -5 -5 -10 -11 -10 -5 0 -7 5 -4
10 3 6 8 10 11 10 2 0 4 -4 4 -10z m-2410 -20 c0 -5 -4 -10 -10 -10 -5 0 -10
5 -10 10 0 6 5 10 10 10 6 0 10 -4 10 -10z m350 0 c0 -5 -2 -10 -4 -10 -3 0
-8 5 -11 10 -3 6 -1 10 4 10 6 0 11 -4 11 -10z m2140 -15 c0 -8 -4 -15 -9 -15
-13 0 -22 16 -14 24 11 11 23 6 23 -9z m750 11 c0 -3 -4 -8 -10 -11 -5 -3 -10
-1 -10 4 0 6 5 11 10 11 6 0 10 -2 10 -4z m-2869 -29 c-13 -13 -26 -3 -16 12
3 6 11 8 17 5 6 -4 6 -10 -1 -17z m2439 8 c0 -9 -6 -12 -15 -9 -8 4 -15 10
-15 15 0 5 7 9 15 9 8 0 15 -7 15 -15z m-2860 -11 c0 -8 -5 -12 -10 -9 -6 4
-8 11 -5 16 9 14 15 11 15 -7z m251 -7 c-13 -13 -26 -3 -16 12 3 6 11 8 17 5
6 -4 6 -10 -1 -17z m2079 13 c0 -5 -4 -10 -10 -10 -5 0 -10 5 -10 10 0 6 5 10
10 10 6 0 10 -4 10 -10z m147 -16 c-9 -9 -28 6 -21 18 4 6 10 6 17 -1 6 -6 8
-13 4 -17z m98 17 c3 -5 1 -12 -5 -16 -5 -3 -10 1 -10 9 0 18 6 21 15 7z m755
-12 c0 -6 -4 -7 -10 -4 -5 3 -10 11 -10 16 0 6 5 7 10 4 6 -3 10 -11 10 -16z
m-3166 -10 c-3 -5 -10 -7 -15 -3 -5 3 -7 10 -3 15 3 5 10 7 15 3 5 -3 7 -10 3
-15z m382 6 c19 -14 19 -14 -3 -15 -28 0 -53 10 -53 21 0 14 34 11 56 -6z
m-502 -19 c9 -14 12 -27 8 -30 -9 -6 -42 29 -42 44 0 18 17 10 34 -14z m1606
-18 c0 -23 31 -88 42 -88 4 0 8 5 8 10 0 6 9 5 21 -2 20 -12 21 -19 15 -93
-11 -139 -15 -154 -50 -170 l-31 -13 28 -1 c23 -1 27 -5 27 -28 0 -30 -14 -39
-170 -112 -36 -17 -108 -56 -160 -86 -92 -54 -97 -55 -150 -49 -30 3 -78 17
-106 30 -28 13 -56 24 -62 24 -6 0 -24 11 -40 25 -28 23 -29 27 -21 72 5 27
16 68 25 93 8 25 17 51 20 58 3 10 12 9 41 -4 21 -9 66 -25 100 -36 51 -17 65
-18 78 -8 22 19 18 58 -10 92 -14 16 -25 33 -25 38 0 5 30 29 68 54 119 79
277 188 282 195 3 4 16 15 30 24 26 18 40 9 40 -25z m1775 32 c3 -6 -1 -7 -9
-4 -18 7 -21 14 -7 14 6 0 13 -4 16 -10z m-965 -10 c0 -5 -4 -10 -10 -10 -5 0
-10 5 -10 10 0 6 5 10 10 10 6 0 10 -4 10 -10z m-2087 -14 c-2 -3 -3 -10 -3
-14 0 -4 -12 -9 -27 -10 -26 -2 -46 14 -37 30 6 9 70 4 67 -6z m2900 -12 c-7
-18 -19 -18 -26 0 -7 18 1 26 18 19 8 -2 11 -11 8 -19z m70 19 c4 -3 2 -12 -4
-20 -9 -10 -15 -10 -25 -2 -8 6 -11 15 -8 20 6 11 28 12 37 2z m-773 -7 c0 -3
-4 -8 -10 -11 -5 -3 -10 -1 -10 4 0 6 5 11 10 11 6 0 10 -2 10 -4z m-140 -16
c8 -5 11 -12 8 -16 -10 -9 -38 3 -38 16 0 12 10 13 30 0z m97 -27 c-11 -12
-19 -13 -36 -4 -29 16 -27 35 3 27 15 -4 28 -1 32 6 6 9 9 9 12 -1 2 -7 -2
-20 -11 -28z m353 27 c0 -5 -4 -10 -10 -10 -5 0 -10 5 -10 10 0 6 5 10 10 10
6 0 10 -4 10 -10z m-2420 -16 c0 -13 3 -14 14 -5 12 10 17 8 26 -8 9 -17 8
-21 -5 -21 -22 0 -66 30 -59 41 9 15 24 10 24 -7z m2460 1 c0 -8 -7 -15 -15
-15 -16 0 -20 12 -8 23 11 12 23 8 23 -8z m-2644 -21 c-3 -7 2 -14 11 -16 9
-2 17 -13 18 -25 1 -18 -1 -20 -11 -12 -18 14 -47 -14 -52 -50 -4 -33 -9 -38
-30 -25 -28 18 -26 43 3 50 16 4 24 12 21 20 -3 7 -1 16 5 19 5 4 7 11 3 16
-9 15 2 36 20 36 10 0 15 -6 12 -13z m394 2 c0 -16 -28 -42 -36 -33 -8 7 14
47 26 47 6 0 10 -6 10 -14z m2684 -10 c-6 -16 -34 -17 -34 -1 0 17 10 24 25
18 8 -2 12 -10 9 -17z m-3381 -10 c-4 -20 -2 -24 14 -20 23 6 28 -22 6 -30 -7
-3 -13 -1 -13 3 0 10 -19 9 -36 -2 -7 -4 -17 0 -24 8 -10 12 -7 15 14 21 20 5
24 10 16 19 -11 13 -4 25 15 25 8 0 10 -10 8 -24z m127 14 c0 -5 -4 -10 -10
-10 -5 0 -10 5 -10 10 0 6 5 10 10 10 6 0 10 -4 10 -10z m2775 0 c3 -5 1 -10
-4 -10 -6 0 -11 5 -11 10 0 6 2 10 4 10 3 0 8 -4 11 -10z m-2795 -31 c0 -5 -4
-9 -10 -9 -5 0 -10 7 -10 16 0 8 5 12 10 9 6 -3 10 -10 10 -16z m70 11 c0 -5
-4 -10 -10 -10 -5 0 -10 5 -10 10 0 6 5 10 10 10 6 0 10 -4 10 -10z m460 -11
c0 -5 -7 -9 -15 -9 -15 0 -20 12 -9 23 8 8 24 -1 24 -14z m2637 -5 c-9 -9 -28
6 -21 18 4 6 10 6 17 -1 6 -6 8 -13 4 -17z m-2686 -17 c-13 -13 -26 -3 -16 12
3 6 11 8 17 5 6 -4 6 -10 -1 -17z m2009 13 c0 -5 -4 -10 -10 -10 -5 0 -10 5
-10 10 0 6 5 10 10 10 6 0 10 -4 10 -10z m-2677 -15 c1 -5 -6 -11 -15 -13 -11
-2 -18 3 -18 13 0 17 30 18 33 0z m3427 -15 c0 -5 -7 -10 -16 -10 -8 0 -12 5
-9 10 3 6 10 10 16 10 5 0 9 -4 9 -10z m-3186 -33 c-1 -12 -3 -25 -3 -29 -1
-4 -7 -5 -15 -2 -19 7 -25 35 -11 50 15 17 32 6 29 -19z m546 23 c0 -5 -4 -10
-9 -10 -6 0 -13 5 -16 10 -3 6 1 10 9 10 9 0 16 -4 16 -10z m2703 -5 c1 -5 -5
-11 -14 -13 -9 -2 -16 4 -16 13 0 17 27 17 30 0z m-3218 -4 c3 -5 1 -12 -5
-16 -5 -3 -10 1 -10 9 0 18 6 21 15 7z m2285 -16 c0 -8 -4 -15 -9 -15 -13 0
-22 16 -14 24 11 11 23 6 23 -9z m460 0 c0 -8 -7 -15 -15 -15 -16 0 -20 12 -8
23 11 12 23 8 23 -8z m568 9 c37 -10 27 -34 -13 -31 -39 4 -50 11 -40 26 7 12
20 13 53 5z m-3188 -14 c0 -5 -5 -10 -11 -10 -5 0 -7 5 -4 10 3 6 8 10 11 10
2 0 4 -4 4 -10z m192 -5 c0 -5 -5 -11 -11 -13 -6 -2 -11 4 -11 13 0 9 5 15 11
13 6 -2 11 -8 11 -13z m-117 -33 c-2 -15 -4 -30 -4 -34 -1 -4 -8 -5 -16 -2
-17 7 -21 34 -4 34 5 0 7 5 4 10 -8 13 4 32 15 25 5 -3 7 -18 5 -33z m178 32
c3 -3 3 -12 0 -20 -4 -11 -9 -12 -19 -3 -8 6 -11 15 -8 20 6 10 18 12 27 3z
m1997 -15 c0 -5 -4 -9 -10 -9 -5 0 -10 7 -10 16 0 8 5 12 10 9 6 -3 10 -10 10
-16z m-2590 -14 c0 -8 -6 -15 -14 -15 -17 0 -28 14 -19 24 12 12 33 6 33 -9z
m2500 -9 c0 -7 -7 -13 -15 -13 -15 0 -20 18 -9 30 9 9 24 -2 24 -17z m-1980
-2 c0 -17 -22 -14 -28 4 -2 7 3 12 12 12 9 0 16 -7 16 -16z m-420 -25 c0 -10
-6 -19 -14 -19 -17 0 -28 38 -12 43 17 6 26 -2 26 -24z m970 24 c-1 -33 -15
-53 -36 -53 -29 0 -33 -30 -5 -37 19 -5 19 -7 -4 -72 -27 -80 -58 -143 -79
-160 -9 -8 -16 -18 -16 -23 0 -13 42 11 62 36 l18 21 0 -26 c0 -14 12 -36 28
-52 32 -30 152 -81 230 -98 53 -11 57 -10 131 27 42 21 99 52 126 69 28 17 75
42 105 54 30 13 69 32 86 42 38 23 44 23 44 4 0 -23 31 -18 37 6 8 28 23 5 23
-34 0 -16 16 -92 36 -170 43 -167 48 -192 73 -357 10 -69 15 -127 11 -130 -14
-9 -22 -214 -11 -299 6 -45 24 -131 40 -190 16 -58 47 -180 69 -271 22 -91 49
-200 61 -244 24 -90 49 -220 54 -286 5 -53 -7 -68 -80 -97 -28 -12 -76 -39
-105 -61 -102 -76 -139 -92 -237 -103 -51 -6 -122 -17 -159 -25 -37 -8 -125
-19 -196 -25 -104 -9 -130 -9 -137 2 -6 11 -12 11 -32 0 -18 -9 -51 -11 -123
-7 -115 8 -164 21 -293 83 -52 25 -136 59 -185 76 -82 28 -101 31 -198 29 -61
-1 -108 2 -108 8 0 14 117 266 160 346 22 39 48 95 59 123 21 55 94 183 205
356 86 135 121 217 134 313 6 40 15 79 20 85 16 20 -29 287 -78 467 -18 63
-19 81 -10 115 15 50 64 131 103 168 29 28 30 30 23 105 -8 104 -26 118 -26
22 0 -71 -2 -76 -34 -110 -19 -19 -53 -69 -76 -110 l-42 -75 6 118 c4 79 2
117 -5 117 -6 0 0 19 14 43 24 41 27 48 27 65 0 5 22 27 49 50 l49 41 27 -20
c33 -26 43 -18 21 16 -21 32 -16 40 66 95 59 39 78 47 78 33z m1845 -3 c-3 -5
-10 -10 -16 -10 -5 0 -9 5 -9 10 0 6 7 10 16 10 8 0 12 -4 9 -10z m615 -15 c0
-17 -28 -27 -33 -12 -7 20 4 36 19 30 8 -3 14 -11 14 -18z m-3065 -15 c-5 -8
-11 -8 -17 -2 -6 6 -7 16 -3 22 5 8 11 8 17 2 6 -6 7 -16 3 -22z m2840 21 c3
-5 1 -12 -5 -16 -5 -3 -10 1 -10 9 0 18 6 21 15 7z m-3335 -16 c0 -8 -4 -15
-10 -15 -5 0 -10 7 -10 15 0 8 5 15 10 15 6 0 10 -7 10 -15z m232 -4 c4 -1 5
-7 2 -15 -3 -8 -12 -13 -20 -10 -8 2 -21 6 -30 9 -8 3 -13 9 -10 13 4 8 14 8
58 3z m91 -16 c-3 -9 -8 -14 -10 -11 -3 3 -2 9 2 15 9 16 15 13 8 -4z m261 -1
c4 -11 13 -14 31 -10 19 5 25 2 25 -10 0 -10 -5 -14 -15 -10 -10 4 -15 -1 -15
-14 0 -26 -20 -26 -27 0 -3 11 -12 20 -19 20 -16 0 -16 2 -8 24 8 21 20 20 28
0z m2296 6 c0 -5 -4 -10 -10 -10 -5 0 -10 5 -10 10 0 6 5 10 10 10 6 0 10 -4
10 -10z m394 -25 c-8 -19 -34 -13 -34 7 0 11 5 16 10 13 6 -3 10 0 10 7 0 10
2 10 9 -1 5 -8 7 -19 5 -26z m-234 4 c0 -5 -7 -9 -15 -9 -15 0 -20 12 -9 23 8
8 24 -1 24 -14z m-3145 -19 c-6 -9 -9 -9 -16 1 -10 17 0 34 13 21 6 -6 7 -16
3 -22z m2587 18 c-9 -9 -15 -9 -24 0 -9 9 -7 12 12 12 19 0 21 -3 12 -12z
m-2302 -8 c0 -5 -4 -10 -10 -10 -5 0 -10 5 -10 10 0 6 5 10 10 10 6 0 10 -4
10 -10z m2242 -12 c-6 -6 -15 -8 -19 -4 -4 4 -1 11 7 16 19 12 27 3 12 -12z
m-2295 -23 c14 -31 -1 -43 -26 -21 -23 21 -30 20 -24 -4 3 -13 -1 -22 -11 -26
-26 -10 -30 3 -11 33 38 58 51 61 72 18z m3407 10 c3 -9 0 -15 -9 -15 -8 0
-15 7 -15 15 0 8 4 15 9 15 5 0 11 -7 15 -15z m-524 -19 c0 -3 -4 -8 -10 -11
-5 -3 -10 -1 -10 4 0 6 5 11 10 11 6 0 10 -2 10 -4z m550 -27 c0 -12 -29 -24
-37 -16 -3 4 -3 13 0 21 6 16 37 11 37 -5z m-1165 1 c3 -5 -1 -10 -10 -10 -9
0 -13 5 -10 10 3 6 8 10 10 10 2 0 7 -4 10 -10z m-1921 -25 c3 -9 0 -15 -9
-15 -16 0 -27 14 -18 24 10 10 21 7 27 -9z m-344 -10 c0 -8 -4 -15 -10 -15 -5
0 -10 7 -10 15 0 8 5 15 10 15 6 0 10 -7 10 -15z m2748 -7 c-2 -13 -7 -23 -12
-23 -5 0 -10 10 -11 23 -1 13 4 22 12 22 9 0 13 -8 11 -22z m-408 2 c0 -5 -2
-10 -4 -10 -3 0 -8 5 -11 10 -3 6 -1 10 4 10 6 0 11 -4 11 -10z m-2210 -15 c0
-8 -7 -15 -15 -15 -8 0 -15 7 -15 15 0 8 7 15 15 15 8 0 15 -7 15 -15z m336
-10 c1 -14 -2 -25 -7 -25 -5 0 -9 11 -9 25 0 33 15 33 16 0z m2859 -5 c-6 -9
-9 -9 -16 1 -10 17 0 34 13 21 6 -6 7 -16 3 -22z m-2937 2 c2 -7 -5 -12 -17
-12 -14 0 -19 5 -14 15 6 17 25 15 31 -3z m2483 -5 c-13 -13 -26 -3 -16 12 3
6 11 8 17 5 6 -4 6 -10 -1 -17z m259 13 c0 -5 -4 -10 -10 -10 -5 0 -10 5 -10
10 0 6 5 10 10 10 6 0 10 -4 10 -10z m-2590 -10 c0 -5 -4 -10 -10 -10 -5 0
-10 5 -10 10 0 6 5 10 10 10 6 0 10 -4 10 -10z m1850 -16 c0 -8 -6 -14 -14
-14 -18 0 -29 27 -13 33 16 6 27 -1 27 -19z m710 6 c0 -5 -4 -10 -10 -10 -5 0
-10 5 -10 10 0 6 5 10 10 10 6 0 10 -4 10 -10z m-2606 -41 c-3 -5 -10 -7 -15
-3 -5 3 -7 10 -3 15 3 5 10 7 15 3 5 -3 7 -10 3 -15z m2953 -5 c-9 -9 -28 6
-21 18 4 6 10 6 17 -1 6 -6 8 -13 4 -17z m63 11 c0 -8 -7 -15 -15 -15 -16 0
-20 12 -8 23 11 12 23 8 23 -8z m-1108 -30 c5 -20 3 -32 -5 -37 -19 -12 -34
-9 -41 7 -5 13 5 20 27 16 4 -1 0 10 -8 23 -15 23 -15 24 1 22 10 -2 21 -15
26 -31z m239 2 c-8 -8 -11 -7 -11 4 0 20 13 34 18 19 3 -7 -1 -17 -7 -23z
m679 18 c0 -8 -6 -15 -14 -15 -17 0 -28 14 -19 24 12 12 33 6 33 -9z m-201
-11 c2 -2 2 -6 -1 -9 -8 -9 -58 6 -58 16 0 8 48 2 59 -7z m161 -5 c0 -5 -7 -9
-15 -9 -15 0 -20 12 -9 23 8 8 24 -1 24 -14z m-2725 -27 c-2 -9 -4 -23 -4 -29
-1 -7 -8 -13 -17 -13 -12 0 -15 6 -10 23 3 12 6 27 6 34 0 7 6 10 14 7 8 -3
13 -13 11 -22z m2205 13 c0 -8 -7 -15 -15 -15 -8 0 -15 7 -15 15 0 8 7 15 15
15 8 0 15 -7 15 -15z m445 -25 c3 -6 -1 -13 -9 -16 -9 -3 -14 -10 -11 -14 6
-9 -13 -25 -21 -18 -5 6 19 58 28 58 4 0 10 -5 13 -10z m-745 -16 c0 -8 -5
-12 -10 -9 -6 4 -8 11 -5 16 9 14 15 11 15 -7z m-1990 -4 c0 -13 -28 -25 -38
-16 -3 4 0 11 8 16 20 13 30 12 30 0z m1925 -31 c4 -5 -1 -12 -9 -15 -19 -7
-49 3 -42 14 7 11 45 12 51 1z m45 -9 c0 -5 -7 -10 -15 -10 -8 0 -15 5 -15 10
0 6 7 10 15 10 8 0 15 -4 15 -10z m410 0 c0 -5 -4 -10 -10 -10 -5 0 -10 5 -10
10 0 6 5 10 10 10 6 0 10 -4 10 -10z m-2590 -10 c0 -5 -4 -10 -10 -10 -5 0
-10 5 -10 10 0 6 5 10 10 10 6 0 10 -4 10 -10z m110 -5 c0 -8 -7 -15 -15 -15
-16 0 -20 12 -8 23 11 12 23 8 23 -8z m2400 5 c0 -5 -2 -10 -4 -10 -3 0 -8 5
-11 10 -3 6 -1 10 4 10 6 0 11 -4 11 -10z m314 4 c15 -6 23 -34 10 -34 -7 0
-34 27 -34 34 0 8 5 7 24 0z m186 -14 c0 -5 -4 -10 -10 -10 -5 0 -10 5 -10 10
0 6 5 10 10 10 6 0 10 -4 10 -10z m-87 -26 c-7 -18 -33 -18 -33 -1 0 19 10 27
25 20 8 -2 11 -11 8 -19z m231 5 c-3 -5 -10 -7 -15 -3 -5 3 -7 10 -3 15 3 5
10 7 15 3 5 -3 7 -10 3 -15z m289 -5 c-3 -8 -9 -14 -13 -14 -13 0 -22 19 -15
30 9 14 34 0 28 -16z m-3943 6 c0 -5 -4 -10 -10 -10 -5 0 -10 5 -10 10 0 6 5
10 10 10 6 0 10 -4 10 -10z m538 -38 c-9 -11 -14 -11 -26 2 -20 20 -7 39 18
24 14 -9 16 -15 8 -26z m2407 29 c7 -12 -12 -24 -25 -16 -11 7 -4 25 10 25 5
0 11 -4 15 -9z m845 -30 c-11 -7 -20 -20 -20 -27 0 -16 -16 -19 -25 -5 -3 5 3
16 13 23 10 7 22 22 26 33 6 16 9 17 16 5 7 -11 4 -19 -10 -29z m-3620 19 c0
-5 -4 -10 -10 -10 -5 0 -10 5 -10 10 0 6 5 10 10 10 6 0 10 -4 10 -10z m2385
0 c3 -5 1 -10 -4 -10 -6 0 -11 5 -11 10 0 6 2 10 4 10 3 0 8 -4 11 -10z m425
0 c0 -5 -2 -10 -4 -10 -3 0 -8 5 -11 10 -3 6 -1 10 4 10 6 0 11 -4 11 -10z
m110 0 c0 -5 -5 -10 -11 -10 -5 0 -7 5 -4 10 3 6 8 10 11 10 2 0 4 -4 4 -10z
m924 2 c2 -4 2 -12 -2 -17 -12 -18 -30 -15 -35 5 -4 15 0 20 13 20 11 0 21 -4
24 -8z m-704 -12 c0 -5 -4 -10 -10 -10 -5 0 -10 5 -10 10 0 6 5 10 10 10 6 0
10 -4 10 -10z m782 -12 c-12 -12 -35 -1 -27 12 3 5 13 6 21 3 10 -4 12 -9 6
-15z m-4023 -29 c-13 -26 -20 -21 -12 9 3 12 9 19 14 16 5 -3 4 -14 -2 -25z
m3002 -12 c-8 -8 -11 -7 -11 4 0 20 13 34 18 19 3 -7 -1 -17 -7 -23z m169 18
c0 -8 -4 -15 -10 -15 -5 0 -10 7 -10 15 0 8 5 15 10 15 6 0 10 -7 10 -15z
m-3060 -5 c0 -5 -7 -10 -15 -10 -8 0 -15 5 -15 10 0 6 7 10 15 10 8 0 15 -4
15 -10z m2810 0 c0 -5 -4 -10 -10 -10 -5 0 -10 5 -10 10 0 6 5 10 10 10 6 0
10 -4 10 -10z m594 1 c3 -5 0 -14 -8 -20 -10 -9 -15 -8 -19 3 -9 22 15 37 27
17z m266 -12 c0 -5 -4 -9 -10 -9 -5 0 -10 7 -10 16 0 8 5 12 10 9 6 -3 10 -10
10 -16z m287 5 c0 -8 -7 -14 -16 -13 -27 2 -61 -13 -61 -27 0 -8 -4 -14 -10
-14 -5 0 -10 7 -10 15 0 8 4 15 9 15 5 0 12 9 16 19 7 24 72 28 72 5z m-4027
-15 c0 -5 -7 -9 -15 -9 -15 0 -20 12 -9 23 8 8 24 -1 24 -14z m727 -1 c-3 -8
-6 -5 -6 6 -1 11 2 17 5 13 3 -3 4 -12 1 -19z m2853 -4 c0 -8 -4 -14 -10 -14
-5 0 -10 9 -10 21 0 11 5 17 10 14 6 -3 10 -13 10 -21z m-1130 6 c0 -5 -4 -10
-10 -10 -5 0 -10 5 -10 10 0 6 5 10 10 10 6 0 10 -4 10 -10z m481 -13 c-5 -5
-7 -16 -4 -23 3 -8 1 -14 -5 -14 -10 0 -23 46 -15 54 3 3 12 2 20 -1 9 -4 11
-9 4 -16z m259 8 c0 -8 -7 -15 -15 -15 -16 0 -20 12 -8 23 11 12 23 8 23 -8z
m-3370 -5 c0 -5 -4 -10 -10 -10 -5 0 -10 5 -10 10 0 6 5 10 10 10 6 0 10 -4
10 -10z m60 0 c0 -5 -4 -10 -10 -10 -5 0 -10 5 -10 10 0 6 5 10 10 10 6 0 10
-4 10 -10z m2649 -16 c-14 -18 -24 -11 -15 11 3 9 11 13 16 10 8 -5 7 -11 -1
-21z m211 -4 c-18 -11 -24 -6 -16 16 5 14 9 15 19 5 9 -9 9 -14 -3 -21z
m-3005 11 c3 -5 1 -12 -5 -16 -5 -3 -10 1 -10 9 0 18 6 21 15 7z m3965 -12 c0
-5 -7 -9 -15 -9 -15 0 -20 12 -9 23 8 8 24 -1 24 -14z m-3760 2 c0 -11 -31
-24 -39 -16 -3 3 1 10 9 15 19 12 30 12 30 1z m2905 -15 c0 -11 -6 -21 -12
-23 -7 -3 -13 2 -13 11 0 9 -8 16 -20 16 -11 0 -20 4 -20 8 0 4 15 8 32 7 26
0 33 -4 33 -19z m165 20 c0 -3 -4 -8 -10 -11 -5 -3 -10 -1 -10 4 0 6 5 11 10
11 6 0 10 -2 10 -4z m455 -9 c12 -9 14 -16 7 -21 -12 -7 -52 13 -52 26 0 12
24 9 45 -5z m171 -3 c-3 -9 -6 -18 -6 -20 0 -2 -9 -4 -19 -4 -30 0 -35 19 -9
29 34 14 41 13 34 -5z m112 -5 c2 -13 -47 -44 -56 -35 -8 9 10 26 20 20 7 -5
9 -2 5 8 -3 9 -3 19 1 22 9 10 27 1 30 -15z m-868 1 c0 -5 -4 -10 -10 -10 -5
0 -10 5 -10 10 0 6 5 10 10 10 6 0 10 -4 10 -10z m-2730 -10 c0 -5 -4 -10 -10
-10 -5 0 -10 5 -10 10 0 6 5 10 10 10 6 0 10 -4 10 -10z m2410 -16 c0 -9 -5
-12 -12 -8 -8 5 -9 0 -4 -17 16 -49 18 -79 7 -80 -6 -1 -17 -2 -23 -3 -18 -3
-39 14 -32 25 3 5 15 9 27 9 13 0 17 3 11 8 -6 4 -16 17 -23 30 -10 19 -9 22
5 22 10 0 14 5 11 14 -3 8 -1 17 6 19 17 6 27 -1 27 -19z m1420 16 c8 -5 12
-12 9 -15 -8 -8 -39 5 -39 16 0 11 11 11 30 -1z m-4010 -36 c0 -21 -27 -17
-33 5 -3 11 -2 22 1 25 8 9 32 -14 32 -30z m2788 6 c-2 -6 -8 -6 -18 0 -13 9
-13 11 0 20 15 10 25 0 18 -20z m342 21 c0 -6 -4 -13 -10 -16 -5 -3 -10 1 -10
9 0 9 5 16 10 16 6 0 10 -4 10 -9z m840 -1 c0 -5 -4 -10 -10 -10 -5 0 -10 5
-10 10 0 6 5 10 10 10 6 0 10 -4 10 -10z m88 -20 c-2 -6 -8 -6 -18 0 -13 9
-13 11 0 20 15 10 25 0 18 -20z m-4198 12 c0 -12 -23 -32 -37 -32 -11 0 -11 4
-1 20 13 20 38 28 38 12z m4002 -7 c0 -5 -5 -11 -11 -13 -6 -2 -11 4 -11 13 0
9 5 15 11 13 6 -2 11 -8 11 -13z m295 9 c-3 -3 -12 -4 -19 -1 -8 3 -5 6 6 6
11 1 17 -2 13 -5z m-4017 -18 c0 -3 -4 -8 -10 -11 -5 -3 -10 -1 -10 4 0 6 5
11 10 11 6 0 10 -2 10 -4z m2915 -20 c8 4 15 2 15 -4 0 -5 -10 -12 -22 -15
-26 -7 -23 -9 -33 23 -7 22 -7 23 9 7 9 -9 23 -14 31 -11z m150 5 c3 -5 1 -12
-5 -16 -5 -3 -10 1 -10 9 0 18 6 21 15 7z m765 -1 c0 -5 -4 -10 -10 -10 -5 0
-10 5 -10 10 0 6 5 10 10 10 6 0 10 -4 10 -10z m45 0 c-3 -5 0 -10 8 -10 8 0
17 -8 21 -17 3 -10 9 -24 12 -30 3 -8 -1 -13 -11 -13 -11 0 -15 5 -12 14 5 13
-12 27 -29 25 -10 -1 -23 24 -18 33 3 4 12 8 20 8 8 0 12 -4 9 -10z m-3832
-30 c-5 -20 -23 -26 -36 -13 -9 8 23 44 33 38 5 -3 6 -14 3 -25z m2711 9 c-3
-5 -10 -7 -15 -3 -5 3 -7 10 -3 15 3 5 10 7 15 3 5 -3 7 -10 3 -15z m386 11
c0 -5 -7 -10 -15 -10 -8 0 -15 5 -15 10 0 6 7 10 15 10 8 0 15 -4 15 -10z
m-2461 -63 c1 -10 -3 -15 -9 -12 -5 3 -10 23 -9 43 1 33 2 34 9 12 4 -14 8
-33 9 -43z m1688 37 c-9 -9 -28 6 -21 18 4 6 10 6 17 -1 6 -6 8 -13 4 -17z
m273 17 c0 -6 -5 -13 -10 -16 -6 -4 -8 -10 -5 -15 3 -4 -2 -10 -9 -13 -21 -8
-26 15 -7 35 18 19 31 23 31 9z m155 -1 c3 -5 -1 -10 -10 -10 -9 0 -13 5 -10
10 3 6 8 10 10 10 2 0 7 -4 10 -10z m-3120 -10 c3 -5 1 -10 -4 -10 -6 0 -11 5
-11 10 0 6 2 10 4 10 3 0 8 -4 11 -10z m40 0 c3 -5 1 -10 -4 -10 -6 0 -11 5
-11 10 0 6 2 10 4 10 3 0 8 -4 11 -10z m39 -6 c10 -25 -1 -29 -14 -5 -6 12 -7
21 -1 21 5 0 12 -7 15 -16z m144 -8 c0 -22 -3 -23 -19 -13 -11 7 -19 17 -19
24 0 7 8 13 19 13 13 0 19 -7 19 -24z m332 14 c0 -5 -4 -10 -10 -10 -5 0 -10
5 -10 10 0 6 5 10 10 10 6 0 10 -4 10 -10z m3140 0 c0 -5 -7 -10 -15 -10 -8 0
-15 5 -15 10 0 6 7 10 15 10 8 0 15 -4 15 -10z m-3380 -10 c0 -5 -4 -10 -10
-10 -5 0 -10 5 -10 10 0 6 5 10 10 10 6 0 10 -4 10 -10z m3455 -20 c-5 -8 -11
-8 -17 -2 -6 6 -7 16 -3 22 5 8 11 8 17 2 6 -6 7 -16 3 -22z m208 4 c-4 -10
-9 -12 -15 -6 -12 12 -1 35 12 27 5 -3 6 -13 3 -21z m-4157 -8 c18 -18 18 -26
-1 -26 -8 0 -19 9 -25 20 -13 24 4 28 26 6z m444 4 c0 -5 -4 -10 -9 -10 -6 0
-13 5 -16 10 -3 6 1 10 9 10 9 0 16 -4 16 -10z m2637 -16 c-9 -9 -28 6 -21 18
4 6 10 6 17 -1 6 -6 8 -13 4 -17z m323 16 c0 -5 -7 -10 -15 -10 -8 0 -15 5
-15 10 0 6 7 10 15 10 8 0 15 -4 15 -10z m87 -16 c-9 -9 -28 6 -21 18 4 6 10
6 17 -1 6 -6 8 -13 4 -17z m378 17 c7 -12 -12 -24 -25 -16 -11 7 -4 25 10 25
5 0 11 -4 15 -9z m139 -16 c-3 -8 -12 -11 -20 -8 -15 5 -18 16 -8 26 11 10 33
-4 28 -18z m223 -1 c-9 -9 -28 6 -21 18 4 6 10 6 17 -1 6 -6 8 -13 4 -17z
m-3877 1 c7 -9 11 -18 8 -20 -9 -10 -38 7 -38 21 0 18 14 18 30 -1z m120 -5
c0 -5 -4 -10 -10 -10 -5 0 -10 5 -10 10 0 6 5 10 10 10 6 0 10 -4 10 -10z
m2980 0 c0 -5 -7 -10 -15 -10 -8 0 -15 5 -15 10 0 6 7 10 15 10 8 0 15 -4 15
-10z m180 0 c0 -5 -4 -10 -10 -10 -5 0 -10 5 -10 10 0 6 5 10 10 10 6 0 10 -4
10 -10z m664 -23 c-8 -27 -26 -40 -35 -25 -9 14 0 40 12 32 5 -3 9 2 9 11 0 9
5 13 10 10 6 -4 8 -16 4 -28z m-4224 13 c0 -5 -4 -10 -10 -10 -5 0 -10 5 -10
10 0 6 5 10 10 10 6 0 10 -4 10 -10z m3094 -5 c-4 -8 -10 -15 -15 -15 -5 0 -9
7 -9 15 0 8 7 15 15 15 9 0 12 -6 9 -15z m110 9 c9 -3 16 -10 16 -15 0 -12
-38 -49 -50 -49 -5 0 -10 9 -10 20 0 11 5 20 10 20 6 0 10 7 10 15 0 17 2 18
24 9z m286 -15 c0 -5 -7 -9 -15 -9 -15 0 -20 12 -9 23 8 8 24 -1 24 -14z
m-544 -33 c5 -21 4 -27 -5 -22 -6 4 -11 2 -11 -5 0 -16 -13 -3 -16 16 -1 8 2
15 8 15 7 0 7 5 -1 13 -6 8 -8 17 -4 21 10 9 21 -5 29 -38z m204 23 c0 -5 -7
-9 -15 -9 -15 0 -20 12 -9 23 8 8 24 -1 24 -14z m977 -5 c-9 -9 -28 6 -21 18
4 6 10 6 17 -1 6 -6 8 -13 4 -17z m-3537 6 c0 -5 -4 -10 -10 -10 -5 0 -10 5
-10 10 0 6 5 10 10 10 6 0 10 -4 10 -10z m2197 -15 c0 -8 -9 -15 -19 -15 -17
0 -25 20 -12 33 10 9 31 -3 31 -18z m79 -2 c-6 -15 -9 -15 -16 -3 -6 9 -5 17
3 22 16 10 21 2 13 -19z m1066 5 c-1 -9 5 -19 14 -22 13 -5 14 -9 4 -21 -15
-18 -34 -9 -26 11 3 8 -1 17 -9 20 -21 9 -19 36 3 32 9 -2 16 -11 14 -20z
m238 12 c0 -5 -4 -10 -10 -10 -5 0 -10 5 -10 10 0 6 5 10 10 10 6 0 10 -4 10
-10z m-4090 -10 c0 -5 -4 -10 -10 -10 -5 0 -10 5 -10 10 0 6 5 10 10 10 6 0
10 -4 10 -10z m3324 -11 c-3 -5 -10 -7 -15 -3 -5 3 -7 10 -3 15 3 5 10 7 15 3
5 -3 7 -10 3 -15z m-290 3 c3 -5 2 -21 -2 -36 -7 -24 -9 -25 -26 -13 -15 11
-17 17 -7 35 12 23 26 28 35 14z m-2689 -23 c-4 -5 3 -13 14 -17 27 -10 25
-24 -5 -40 -30 -16 -40 -11 -26 14 7 13 6 22 -5 32 -11 12 -12 17 -2 23 16 9
32 1 24 -12z m2562 -25 c-3 -4 -13 -4 -22 0 -13 5 -14 10 -4 28 l12 23 10 -23
c6 -12 7 -25 4 -28z m-2857 21 c0 -8 -4 -15 -10 -15 -5 0 -10 7 -10 15 0 8 5
15 10 15 6 0 10 -7 10 -15z m193 -5 c-6 -23 -28 -27 -36 -6 -7 17 1 26 24 26
12 0 16 -6 12 -20z m3101 -5 c5 0 11 -6 14 -14 4 -11 -2 -12 -24 -7 -35 9 -38
12 -29 25 3 6 12 8 18 4 7 -4 16 -8 21 -8z m116 -6 c0 -5 -7 -9 -15 -9 -15 0
-20 12 -9 23 8 8 24 -1 24 -14z m204 -3 c3 -14 4 -31 1 -39 -8 -20 -35 -17
-36 5 -1 10 -2 24 -3 31 -6 35 29 38 38 3z m486 8 c0 -17 -22 -14 -28 4 -2 7
3 12 12 12 9 0 16 -7 16 -16z m-4226 -15 c-3 -5 -10 -7 -15 -3 -5 3 -7 10 -3
15 3 5 10 7 15 3 5 -3 7 -10 3 -15z m262 -24 c-1 -48 -17 -60 -36 -25 -10 18
-7 24 13 21 4 0 6 2 6 7 -3 19 2 42 9 42 4 0 8 -20 8 -45z m244 31 c0 -8 6
-16 13 -19 6 -2 9 -8 5 -12 -8 -9 -38 18 -38 34 0 6 5 11 10 11 6 0 10 -6 10
-14z m2247 -1 c0 -8 -6 -15 -14 -15 -7 0 -13 7 -13 15 0 8 6 15 13 15 8 0 14
-7 14 -15z m-2797 -11 c0 -9 -5 -14 -12 -12 -18 6 -21 28 -4 28 9 0 16 -7 16
-16z m3087 -10 c-9 -9 -28 6 -21 18 4 6 10 6 17 -1 6 -6 8 -13 4 -17z m129 15
c3 -6 0 -15 -7 -20 -14 -8 -32 9 -23 23 7 11 22 10 30 -3z m742 -7 c6 -18 -15
-14 -22 4 -4 10 -1 14 6 12 6 -2 14 -10 16 -16z m-3548 -8 c0 -8 -4 -12 -10
-9 -5 3 -10 10 -10 16 0 5 5 9 10 9 6 0 10 -7 10 -16z m3256 -7 c1 -9 -4 -17
-11 -17 -17 0 -28 17 -20 31 9 14 28 6 31 -14z m-801 3 c3 -5 1 -10 -4 -10 -6
0 -11 5 -11 10 0 6 2 10 4 10 3 0 8 -4 11 -10z m519 -11 c-3 -5 -10 -7 -15 -3
-5 3 -7 10 -3 15 3 5 10 7 15 3 5 -3 7 -10 3 -15z m-2194 -43 c-7 -7 -10 1 -9
25 0 32 1 33 10 10 6 -16 6 -28 -1 -35z m1881 31 c-13 -13 -26 -3 -16 12 3 6
11 8 17 5 6 -4 6 -10 -1 -17z m179 2 c0 -5 -4 -9 -10 -9 -5 0 -10 7 -10 16 0
8 5 12 10 9 6 -3 10 -10 10 -16z m234 6 c7 -20 -32 -41 -47 -26 -8 8 -5 15 9
26 24 18 31 18 38 0z m934 3 c-3 -7 -11 -13 -18 -13 -7 0 -15 6 -17 13 -3 7 4
12 17 12 13 0 20 -5 18 -12z m-4873 -19 c-4 -5 -13 -9 -22 -9 -13 0 -13 3 -3
15 13 15 35 11 25 -6z m3470 11 c-3 -5 -10 -10 -16 -10 -5 0 -9 5 -9 10 0 6 7
10 16 10 8 0 12 -4 9 -10z m-2433 -35 c21 -29 0 -33 -32 -7 -14 11 -20 24 -16
31 8 12 30 1 48 -24z m2463 5 c-5 -8 -11 -8 -17 -2 -6 6 -7 16 -3 22 5 8 11 8
17 2 6 -6 7 -16 3 -22z m156 7 c-13 -13 -26 -3 -16 12 3 6 11 8 17 5 6 -4 6
-10 -1 -17z m-2941 3 c0 -5 -5 -10 -11 -10 -5 0 -7 5 -4 10 3 6 8 10 11 10 2
0 4 -4 4 -10z m2621 -3 c-1 -12 -15 -9 -19 4 -3 6 1 10 8 8 6 -3 11 -8 11 -12z
m1452 -34 c-7 -17 -18 -16 -34 3 -10 13 -10 17 1 24 16 10 39 -10 33 -27z
m-3673 12 c0 -14 -14 -34 -20 -30 -5 3 -6 -3 -3 -13 3 -12 -1 -19 -11 -19 -11
0 -15 9 -13 31 2 34 13 47 34 39 7 -3 13 -7 13 -8z m2358 -8 c2 -11 -3 -17
-16 -17 -18 0 -20 6 -13 38 3 11 27 -7 29 -21z m-2713 3 c3 -5 1 -10 -4 -10
-6 0 -11 5 -11 10 0 6 2 10 4 10 3 0 8 -4 11 -10z m-704 -12 c0 -7 2 -28 5
-45 3 -25 0 -33 -12 -33 -11 0 -13 6 -9 20 4 12 2 20 -6 20 -8 0 -9 4 0 13 8
10 7 17 -1 25 -9 9 -8 12 5 12 9 0 17 -6 18 -12z m3653 4 c9 -14 -9 -31 -23
-23 -7 5 -10 14 -7 20 8 13 23 14 30 3z m-3769 -32 c-5 -8 -11 -8 -17 -2 -6 6
-7 16 -3 22 5 8 11 8 17 2 6 -6 7 -16 3 -22z m3835 20 c0 -5 -4 -10 -10 -10
-5 0 -10 5 -10 10 0 6 5 10 10 10 6 0 10 -4 10 -10z m-265 -9 c3 -5 1 -12 -5
-16 -5 -3 -10 1 -10 9 0 18 6 21 15 7z m405 -6 c0 -8 -4 -15 -9 -15 -13 0 -22
16 -14 24 11 11 23 6 23 -9z m-3060 -5 c0 -5 -7 -10 -15 -10 -8 0 -15 5 -15
10 0 6 7 10 15 10 8 0 15 -4 15 -10z m2806 -16 c-3 -8 -2 -14 3 -14 4 0 8 -7
8 -15 0 -21 -24 -19 -36 3 -14 26 -14 34 0 43 17 10 32 1 25 -17z m554 13 c0
-8 -7 -14 -15 -14 -8 0 -15 6 -15 14 0 7 7 13 15 13 8 0 15 -6 15 -13z m71
-41 c-9 -11 -11 -17 -11 -38 0 -28 -23 13 -25 44 -2 47 5 55 27 28 12 -14 15
-27 9 -34z m624 44 c3 -5 1 -10 -4 -10 -6 0 -11 5 -11 10 0 6 2 10 4 10 3 0 8
-4 11 -10z m-1339 -27 c-10 -10 -19 5 -10 18 6 11 8 11 12 0 2 -7 1 -15 -2
-18z m219 -13 c-5 -8 -11 -8 -17 -2 -6 6 -7 16 -3 22 5 8 11 8 17 2 6 -6 7
-16 3 -22z m-3885 -5 c0 -9 -6 -12 -15 -9 -8 4 -12 10 -9 15 8 14 24 10 24 -6z
m58 3 c-6 -18 -28 -21 -28 -4 0 9 7 16 16 16 9 0 14 -5 12 -12z m3542 2 c0 -5
4 -9 9 -7 5 1 9 -2 10 -8 1 -5 -3 -10 -9 -9 -5 1 -17 2 -25 3 -8 0 -15 8 -15
16 0 8 7 15 15 15 8 0 15 -4 15 -10z m1025 -10 c0 -7 -6 -15 -12 -17 -8 -3
-13 4 -13 17 0 13 5 20 13 18 6 -3 12 -11 12 -18z m425 1 c0 -5 -7 -11 -15
-15 -9 -3 -15 0 -15 9 0 8 7 15 15 15 8 0 15 -4 15 -9z m-4183 -25 c0 -8 -6
-13 -13 -12 -19 3 -27 13 -20 25 9 13 33 4 33 -13z m387 3 c-3 -5 -10 -7 -15
-3 -5 3 -7 10 -3 15 3 5 10 7 15 3 5 -3 7 -10 3 -15z m89 10 c-6 -6 -9 -18 -6
-26 5 -12 1 -11 -15 3 -24 20 -20 34 11 34 15 0 18 -3 10 -11z m2970 5 c3 -3
3 -12 0 -19 -6 -17 -33 -8 -33 11 0 14 21 19 33 8z m-798 -23 c3 -5 1 -12 -4
-15 -5 -3 -11 1 -15 9 -6 16 9 21 19 6z m1156 0 c9 -1 7 -61 -3 -61 -4 0 -8 7
-8 15 0 8 -6 15 -13 15 -7 0 -13 9 -14 19 -1 13 4 18 15 16 9 -2 20 -4 23 -4z
m-3681 -23 c0 -11 -7 -18 -18 -18 -24 0 -32 8 -26 25 8 20 44 14 44 -7z m300
12 c0 -5 -5 -10 -11 -10 -5 0 -7 5 -4 10 3 6 8 10 11 10 2 0 4 -4 4 -10z
m2332 -5 c0 -5 -5 -11 -11 -13 -6 -2 -11 4 -11 13 0 9 5 15 11 13 6 -2 11 -8
11 -13z m-3602 -15 c0 -5 9 -12 21 -15 14 -5 19 -13 16 -26 -3 -10 -1 -17 4
-13 5 3 9 -4 9 -14 0 -25 -26 -36 -34 -15 -4 9 -9 13 -13 10 -3 -4 -12 -2 -20
5 -11 9 -11 14 3 29 15 17 15 18 -9 14 -25 -5 -30 6 -14 32 8 13 37 7 37 -7z
m4448 9 c-2 -6 -8 -10 -13 -10 -5 0 -11 4 -13 10 -2 6 4 11 13 11 9 0 15 -5
13 -11z m276 3 c8 -14 -10 -33 -26 -27 -21 8 -18 35 3 35 10 0 20 -4 23 -8z
m-3589 -12 c3 -6 -1 -13 -10 -16 -19 -8 -30 0 -20 15 8 14 22 14 30 1z m3005
-25 c-5 -6 -7 -21 -3 -33 6 -25 -4 -28 -29 -8 -23 17 -23 27 3 55 17 18 23 20
30 10 4 -7 4 -18 -1 -24z m260 19 c0 -8 -4 -12 -10 -9 -5 3 -10 10 -10 16 0 5
5 9 10 9 6 0 10 -7 10 -16z m-4273 -20 c-9 -9 -28 6 -21 18 4 6 10 6 17 -1 6
-6 8 -13 4 -17z m53 5 c0 -5 -7 -9 -15 -9 -15 0 -20 12 -9 23 8 8 24 -1 24
-14z m1220 -15 c0 -14 -3 -14 -15 -4 -8 7 -15 14 -15 16 0 2 7 4 15 4 8 0 15
-7 15 -16z m2250 8 c0 -13 -12 -22 -22 -16 -10 6 -1 24 13 24 5 0 9 -4 9 -8z
m600 -17 c0 -8 -7 -15 -15 -15 -26 0 -18 20 13 29 1 1 2 -6 2 -14z m-3534 -10
c9 -8 12 -19 9 -25 -11 -17 -42 -11 -48 9 -8 33 14 42 39 16z m374 -6 c0 -5
-7 -9 -15 -9 -15 0 -20 12 -9 23 8 8 24 -1 24 -14z m104 0 c-3 -5 -10 -7 -15
-3 -5 3 -7 10 -3 15 3 5 10 7 15 3 5 -3 7 -10 3 -15z m563 -56 c-2 -16 -4 -3
-4 27 0 30 2 43 4 28 2 -16 2 -40 0 -55z m2553 67 c0 -5 -4 -10 -10 -10 -5 0
-10 5 -10 10 0 6 5 10 10 10 6 0 10 -4 10 -10z m80 0 c0 -5 -4 -10 -10 -10 -5
0 -10 5 -10 10 0 6 5 10 10 10 6 0 10 -4 10 -10z m477 -31 c-1 -22 -32 -26
-40 -5 -7 17 11 36 29 29 7 -2 12 -13 11 -24z m108 21 c3 -5 1 -10 -4 -10 -6
0 -11 5 -11 10 0 6 2 10 4 10 3 0 8 -4 11 -10z m-457 -37 c4 -27 -25 -38 -33
-13 -4 11 -3 25 0 30 10 16 30 6 33 -17z m440 -16 c-17 -18 -38 -10 -38 13 0
23 21 31 38 13 11 -11 11 -15 0 -26z m-4141 7 c-9 -9 -28 6 -21 18 4 6 10 6
17 -1 6 -6 8 -13 4 -17z m73 5 c0 -5 -7 -9 -15 -9 -15 0 -20 12 -9 23 8 8 24
-1 24 -14z m232 6 c0 -5 -5 -11 -11 -13 -6 -2 -11 4 -11 13 0 9 5 15 11 13 6
-2 11 -8 11 -13z m112 -1 c23 -9 20 -24 -4 -24 -11 0 -20 7 -20 15 0 17 2 18
24 9z m-174 -18 c0 -8 -4 -17 -9 -21 -12 -7 -24 12 -16 25 9 15 25 12 25 -4z
m3345 -16 c-5 -8 -11 -8 -17 -2 -6 6 -7 16 -3 22 5 8 11 8 17 2 6 -6 7 -16 3
-22z m-3389 -7 c-10 -10 -19 5 -10 18 6 11 8 11 12 0 2 -7 1 -15 -2 -18z
m3204 12 c0 -8 -4 -15 -9 -15 -13 0 -22 16 -14 24 11 11 23 6 23 -9z m420 -6
c0 -5 -7 -9 -15 -9 -15 0 -20 12 -9 23 8 8 24 -1 24 -14z m-3250 -9 c0 -5 -2
-10 -4 -10 -3 0 -8 5 -11 10 -3 6 -1 10 4 10 6 0 11 -4 11 -10z m-1290 -9 c0
-5 -5 -22 -11 -38 -8 -22 -12 -24 -19 -13 -17 27 -12 60 10 60 11 0 20 -4 20
-9z m650 -1 c0 -5 -8 -10 -17 -11 -10 0 -13 -3 -6 -5 15 -7 5 -34 -12 -34 -9
0 -13 11 -13 30 1 25 5 30 25 30 12 0 23 -4 23 -10z m203 4 c9 -10 -4 -35 -15
-28 -6 4 -14 1 -18 -6 -5 -7 -15 -10 -25 -6 -14 5 -15 9 -5 21 6 7 19 11 27 8
11 -4 14 -2 9 5 -7 12 15 17 27 6z m3192 -4 c3 -6 -1 -13 -9 -16 -9 -3 -13
-11 -9 -18 14 -21 11 -34 -7 -39 -23 -6 -34 28 -14 44 8 6 14 18 14 25 0 16
16 19 25 4z m-3986 -26 c-15 -18 -22 -13 -13 10 3 9 10 13 16 10 5 -3 4 -12
-3 -20z m455 18 c6 -10 -5 -26 -21 -29 -7 -2 -13 3 -13 10 0 24 23 36 34 19z
m194 -3 c-2 -6 -8 -10 -13 -10 -5 0 -11 4 -13 10 -2 6 4 11 13 11 9 0 15 -5
13 -11z m939 -21 c-3 -7 -5 -2 -5 12 0 14 2 19 5 13 2 -7 2 -19 0 -25z m-1533
-25 c-26 -82 -46 -225 -41 -287 l5 -58 -22 33 c-29 44 -56 123 -56 167 0 25
14 54 56 113 30 43 59 79 64 79 5 0 2 -21 -6 -47z m896 21 c0 -8 -7 -14 -15
-14 -15 0 -21 21 -9 33 10 9 24 -2 24 -19z m3600 5 c0 -5 -7 -9 -15 -9 -15 0
-20 12 -9 23 8 8 24 -1 24 -14z m-4032 -7 c2 -7 -3 -12 -12 -12 -9 0 -16 7
-16 16 0 17 22 14 28 -4z m3982 -7 c0 -17 -59 -30 -72 -17 -17 17 0 30 37 30
22 0 35 -5 35 -13z m-3950 -31 c0 -15 -21 -15 -32 1 -8 11 12 26 24 19 4 -3 8
-12 8 -20z m610 16 c0 -5 -4 -10 -10 -10 -5 0 -10 5 -10 10 0 6 5 10 10 10 6
0 10 -4 10 -10z m112 -2 c-9 -9 -15 -9 -24 0 -9 9 -7 12 12 12 19 0 21 -3 12
-12z m2951 5 c11 -10 -44 -55 -60 -49 -19 8 -11 31 11 30 9 -1 16 4 16 12 0
14 22 19 33 7z m-3805 -20 c-4 -22 -22 -20 -26 1 -2 10 3 16 13 16 10 0 15 -7
13 -17z m802 -13 c-18 -11 -24 -6 -16 16 5 14 9 15 19 5 9 -9 9 -14 -3 -21z
m-320 -12 c0 -5 -7 -8 -15 -8 -17 0 -18 2 -9 25 5 13 8 14 15 3 5 -7 9 -16 9
-20z m-430 7 c0 -9 -6 -12 -15 -9 -8 4 -15 10 -15 15 0 5 7 9 15 9 8 0 15 -7
15 -15z m460 5 c0 -5 -5 -10 -11 -10 -5 0 -7 5 -4 10 3 6 8 10 11 10 2 0 4 -4
4 -10z m3040 -10 c0 -5 -7 -10 -16 -10 -8 0 -12 5 -9 10 3 6 10 10 16 10 5 0
9 -4 9 -10z m607 -30 c1 -11 -4 -20 -12 -20 -15 0 -24 19 -18 37 7 18 29 5 30
-17z m-4027 0 c13 -23 40 -27 40 -5 0 8 5 15 10 15 12 0 13 -13 3 -24 -10 -10
-14 -46 -5 -46 5 0 9 -7 9 -15 0 -23 -25 -18 -43 10 -9 14 -20 23 -24 20 -4
-3 -10 5 -13 16 -4 16 -10 19 -27 14 -17 -5 -21 -4 -17 6 2 8 10 13 16 12 6
-2 11 2 11 7 0 18 29 11 40 -10z m670 10 c0 -5 -4 -10 -10 -10 -5 0 -10 5 -10
10 0 6 5 10 10 10 6 0 10 -4 10 -10z m2111 -13 c-13 -13 -26 -3 -16 12 3 6 11
8 17 5 6 -4 6 -10 -1 -17z m-594 -9 c-3 -8 -6 -5 -6 6 -1 11 2 17 5 13 3 -3 4
-12 1 -19z m1376 16 c3 -3 3 -12 0 -19 -6 -17 -33 -8 -33 11 0 14 21 19 33 8z
m415 -12 c2 -7 -3 -12 -12 -12 -9 0 -16 7 -16 16 0 17 22 14 28 -4z m-476 -7
c0 -5 -5 -11 -11 -13 -6 -2 -11 4 -11 13 0 9 5 15 11 13 6 -2 11 -8 11 -13z
m-3582 -21 c0 -8 -5 -14 -11 -14 -18 0 -50 21 -45 29 9 13 56 0 56 -15z m4013
20 c9 -10 -4 -34 -19 -34 -8 0 -14 9 -14 20 0 19 19 27 33 14z m-2974 -90
c-22 -38 -58 -94 -79 -124 -20 -30 -56 -91 -80 -135 -23 -44 -49 -87 -56 -95
-7 -8 -27 -47 -44 -85 -18 -39 -65 -137 -106 -220 -40 -82 -87 -181 -103 -220
-23 -53 -34 -69 -48 -68 -22 3 -116 -22 -160 -43 -32 -15 -81 -17 -122 -5 -22
6 -19 9 30 35 30 16 68 39 84 51 17 12 45 30 63 39 49 25 204 186 193 200 -10
12 65 203 103 265 13 20 45 77 71 126 56 106 65 118 98 118 18 0 29 8 40 32 9
18 25 36 36 40 13 4 25 21 33 46 6 22 19 46 28 52 9 7 25 27 36 45 10 18 20
29 22 24 1 -5 -16 -40 -39 -78z m2451 82 c0 -3 -4 -8 -10 -11 -5 -3 -10 -1
-10 4 0 6 5 11 10 11 6 0 10 -2 10 -4z m-2940 -16 c0 -5 7 -10 15 -10 8 0 15
-4 15 -10 0 -13 -17 -13 -25 1 -4 6 -13 8 -21 5 -8 -3 -14 1 -14 9 0 8 7 15
15 15 8 0 15 -4 15 -10z m220 -10 c0 -5 -4 -10 -10 -10 -5 0 -10 5 -10 10 0 6
5 10 10 10 6 0 10 -4 10 -10z m2243 4 c9 -9 -4 -35 -14 -28 -5 3 -9 12 -9 20
0 14 12 19 23 8z m927 -15 c0 -5 -7 -9 -15 -9 -15 0 -20 12 -9 23 8 8 24 -1
24 -14z m-510 -4 c0 -8 -4 -15 -10 -15 -5 0 -10 7 -10 15 0 8 5 15 10 15 6 0
10 -7 10 -15z m-500 -15 c0 -5 -4 -10 -10 -10 -5 0 -10 5 -10 10 0 6 5 10 10
10 6 0 10 -4 10 -10z m75 -52 c-2 -29 -22 -34 -30 -7 -5 13 -2 24 6 30 18 11
26 4 24 -23z m268 18 c3 -8 0 -17 -8 -20 -14 -5 -28 17 -18 28 10 10 21 7 26
-8z m-3143 -17 c0 -5 -7 -9 -15 -9 -15 0 -20 12 -9 23 8 8 24 -1 24 -14z m435
11 c-3 -6 1 -13 10 -16 12 -5 13 -9 4 -21 -7 -8 -8 -13 -3 -11 5 2 10 -1 12
-7 2 -5 -1 -11 -7 -13 -6 -2 -13 8 -17 22 -3 14 -10 24 -14 21 -10 -6 -21 21
-13 29 11 10 35 7 28 -4z m2825 -14 c0 -13 -39 -30 -48 -21 -8 7 20 35 34 35
8 0 14 -6 14 -14z m588 -3 c6 -19 -25 -16 -32 3 -4 11 -1 14 11 12 9 -2 18 -9
21 -15z m-874 -32 c3 -5 -1 -14 -9 -21 -13 -10 -15 -9 -15 9 0 21 14 28 24 12z
m834 -14 c2 -10 -3 -17 -11 -17 -16 0 -30 24 -19 34 10 10 27 1 30 -17z
m-3247 0 c-1 -12 -15 -9 -19 4 -3 6 1 10 8 8 6 -3 11 -8 11 -12z m105 2 c3 -6
0 -15 -7 -20 -14 -8 -32 9 -23 23 7 11 22 10 30 -3z m2534 0 c0 -6 -7 -9 -15
-5 -8 3 -15 1 -15 -4 0 -6 -4 -10 -10 -10 -5 0 -10 7 -10 15 0 9 9 15 25 15
14 0 25 -5 25 -11z m-290 -19 c0 -5 -5 -10 -11 -10 -5 0 -7 5 -4 10 3 6 8 10
11 10 2 0 4 -4 4 -10z m140 0 c0 -5 -4 -10 -10 -10 -5 0 -10 5 -10 10 0 6 5
10 10 10 6 0 10 -4 10 -10z m-2595 -10 c3 -5 1 -10 -4 -10 -6 0 -11 5 -11 10
0 6 2 10 4 10 3 0 8 -4 11 -10z m2660 -10 c3 -5 -1 -10 -10 -10 -9 0 -13 5
-10 10 3 6 8 10 10 10 2 0 7 -4 10 -10z m553 -12 c-6 -18 -28 -21 -28 -4 0 9
7 16 16 16 9 0 14 -5 12 -12z m-513 -18 c3 -5 1 -10 -4 -10 -6 0 -11 5 -11 10
0 6 2 10 4 10 3 0 8 -4 11 -10z m-212 -14 c17 -13 17 -15 1 -31 -14 -13 -19
-14 -25 -3 -5 7 -4 14 1 16 6 2 10 8 10 13 0 4 -7 6 -15 3 -8 -4 -15 -1 -15 5
0 15 21 13 43 -3z m407 4 c0 -5 -2 -10 -4 -10 -3 0 -8 5 -11 10 -3 6 -1 10 4
10 6 0 11 -4 11 -10z m140 -10 c0 -5 -7 -10 -15 -10 -8 0 -15 5 -15 10 0 6 7
10 15 10 8 0 15 -4 15 -10z m-678 -15 c0 -5 -5 -11 -11 -13 -6 -2 -11 4 -11
13 0 9 5 15 11 13 6 -2 11 -8 11 -13z m232 9 c22 -8 21 -44 -1 -44 -13 0 -14
-3 -5 -12 17 -17 15 -38 -3 -38 -18 0 -37 34 -29 54 3 9 16 16 27 16 20 0 20
0 1 15 -20 15 -16 19 10 9z m456 -40 c0 -8 5 -14 10 -14 6 0 10 -7 10 -15 0
-8 -7 -15 -15 -15 -8 0 -15 5 -15 11 0 7 -7 17 -17 24 -9 7 -13 17 -9 23 9 15
36 4 36 -14z m-378 -6 c4 -10 -32 -38 -48 -38 -11 0 -2 24 14 36 22 17 29 17
34 2z m289 -21 c-13 -13 -26 -3 -16 12 3 6 11 8 17 5 6 -4 6 -10 -1 -17z
m-443 -11 c3 -11 -1 -17 -9 -14 -7 2 -13 12 -15 22 -3 23 20 15 24 -8z m414 7
c21 -19 24 -43 5 -43 -7 0 -18 14 -24 30 -13 34 -8 37 19 13z m88 -38 c0 -8
-4 -15 -9 -15 -13 0 -22 16 -14 24 11 11 23 6 23 -9z m55 -6 c0 -7 -8 -15 -17
-17 -18 -3 -25 18 -11 32 10 10 28 1 28 -15z m-197 -7 c2 -7 -3 -12 -12 -12
-9 0 -16 7 -16 16 0 17 22 14 28 -4z m-324 -20 c3 -5 -4 -16 -15 -25 -24 -21
-36 -22 -19 -2 6 8 9 19 5 25 -3 5 1 10 9 10 8 0 17 -4 20 -8z m426 -12 c0 -5
-4 -10 -10 -10 -5 0 -10 5 -10 10 0 6 5 10 10 10 6 0 10 -4 10 -10z m-398 -42
c-7 -7 -12 -8 -12 -2 0 14 12 26 19 19 2 -3 -1 -11 -7 -17z m311 -13 c1 -5 -6
-11 -15 -13 -11 -2 -18 3 -18 13 0 17 30 18 33 0z m-3223 -20 c0 -8 -4 -15 -9
-15 -13 0 -22 16 -14 24 11 11 23 6 23 -9z m150 5 c0 -5 -2 -10 -4 -10 -3 0
-8 5 -11 10 -3 6 -1 10 4 10 6 0 11 -4 11 -10z m2760 -20 c0 -5 -4 -10 -10
-10 -5 0 -10 5 -10 10 0 6 5 10 10 10 6 0 10 -4 10 -10z m-2831 -53 c6 -8 8
-16 5 -20 -10 -9 -34 4 -34 19 0 18 14 18 29 1z m2176 3 c3 -5 1 -10 -4 -10
-6 0 -11 5 -11 10 0 6 2 10 4 10 3 0 8 -4 11 -10z m645 0 c0 -5 -4 -10 -10
-10 -5 0 -10 5 -10 10 0 6 5 10 10 10 6 0 10 -4 10 -10z m-2927 -65 c-3 -13
-53 -20 -53 -7 0 15 13 23 35 20 11 -2 19 -7 18 -13z m67 5 c0 -5 -2 -10 -4
-10 -3 0 -8 5 -11 10 -3 6 -1 10 4 10 6 0 11 -4 11 -10z m2915 -20 c-3 -5 -10
-10 -16 -10 -5 0 -9 5 -9 10 0 6 7 10 16 10 8 0 12 -4 9 -10z m-2885 -40 c0
-5 -4 -10 -10 -10 -5 0 -10 5 -10 10 0 6 5 10 10 10 6 0 10 -4 10 -10z m-54
-25 c1 -8 -3 -13 -9 -12 -19 3 -27 21 -14 29 13 8 20 3 23 -17z m2984 5 c0 -5
-5 -10 -11 -10 -5 0 -7 5 -4 10 3 6 8 10 11 10 2 0 4 -4 4 -10z m-3030 -31 c0
-5 -7 -9 -15 -9 -15 0 -20 12 -9 23 8 8 24 -1 24 -14z m110 11 c0 -5 -4 -10
-10 -10 -5 0 -10 5 -10 10 0 6 5 10 10 10 6 0 10 -4 10 -10z m-44 -47 c-10
-10 -19 5 -10 18 6 11 8 11 12 0 2 -7 1 -15 -2 -18z m2249 -22 c3 -5 1 -12 -5
-16 -5 -3 -10 1 -10 9 0 18 6 21 15 7z m-2313 -32 c-29 -27 -72 -36 -72 -15 0
16 13 25 44 30 8 1 18 5 22 9 4 3 11 4 16 1 5 -4 1 -14 -10 -25z m3218 -3 c0
-7 -7 -13 -15 -13 -15 0 -20 18 -9 30 9 9 24 -2 24 -17z m-50 4 c0 -5 -4 -10
-9 -10 -6 0 -13 5 -16 10 -3 6 1 10 9 10 9 0 16 -4 16 -10z m-110 -10 c0 -5
-4 -10 -10 -10 -5 0 -10 5 -10 10 0 6 5 10 10 10 6 0 10 -4 10 -10z m-2990
-15 c0 -8 -7 -15 -15 -15 -8 0 -15 7 -15 15 0 8 7 15 15 15 8 0 15 -7 15 -15z
m179 -31 c-18 -20 -47 -43 -64 -51 -35 -18 -28 -9 40 46 61 51 70 52 24 5z
m2031 6 c-18 -11 -24 -6 -16 16 5 14 9 15 19 5 9 -9 9 -14 -3 -21z m970 20 c0
-5 -4 -10 -10 -10 -5 0 -10 5 -10 10 0 6 5 10 10 10 6 0 10 -4 10 -10z m-110
-50 c0 -5 -4 -10 -9 -10 -6 0 -13 5 -16 10 -3 6 1 10 9 10 9 0 16 -4 16 -10z
m-3184 -35 c-5 -31 -37 -42 -47 -15 -4 9 2 19 15 26 25 13 35 9 32 -11z m2404
-10 c0 -15 -18 -30 -27 -22 -2 3 -2 15 2 26 7 23 25 19 25 -4z m60 17 c0 -13
-12 -22 -22 -16 -10 6 -1 24 13 24 5 0 9 -4 9 -8z m40 4 c0 -3 -4 -8 -10 -11
-5 -3 -10 -1 -10 4 0 6 5 11 10 11 6 0 10 -2 10 -4z m743 -16 c-5 -20 -15 -25
-26 -13 -8 7 11 33 23 33 5 0 6 -9 3 -20z m57 6 c0 -16 -28 -41 -36 -33 -9 9
6 28 17 22 5 -3 6 1 3 9 -3 9 -1 16 5 16 6 0 11 -6 11 -14z m66 -32 c-3 -9 -6
-20 -6 -25 0 -5 -9 -9 -19 -9 -19 0 -22 14 -8 38 12 18 40 15 33 -4z m-3226
-12 c0 -4 -16 -15 -35 -24 -39 -17 -43 -14 -18 14 16 18 53 25 53 10z m2370
-46 c0 -23 -20 -29 -38 -13 -9 8 -24 17 -32 20 -8 3 4 6 28 6 30 1 42 -3 42
-13z m-1420 -246 c0 -13 -11 -13 -30 0 -12 8 -11 10 8 10 12 0 22 -4 22 -10z"/>
<path d="M2507 3508 c-18 -41 -12 -51 24 -46 19 3 34 -1 46 -14 10 -11 20 -15
27 -9 6 4 36 11 66 14 62 7 145 46 145 68 0 11 -10 13 -45 9 -70 -8 -192 -6
-222 4 -25 7 -29 5 -41 -26z"/>
<path d="M2321 3464 c-43 -30 -20 -74 40 -74 69 0 77 50 12 77 -25 10 -34 9
-52 -3z"/>
<path d="M2736 3410 c-31 -47 -43 -53 -21 -11 11 22 12 32 3 37 -13 8 -98 -79
-98 -99 1 -7 12 2 25 18 23 28 25 28 25 8 0 -45 35 -40 73 10 28 36 43 77 29
77 -5 0 -21 -18 -36 -40z"/>
<path d="M2300 3362 l-24 -20 27 -36 c35 -45 66 -47 101 -5 43 51 36 65 -36
75 -34 5 -48 2 -68 -14z m71 -37 c-1 -15 -24 -12 -29 3 -3 9 2 13 12 10 10 -1
17 -7 17 -13z"/>
<path d="M2520 3244 c-17 -8 -71 -14 -153 -16 -127 -3 -146 -9 -113 -37 22
-19 281 0 303 21 9 9 13 24 10 32 -7 19 -13 19 -47 0z"/>
<path d="M2595 2510 c-30 -11 -50 -39 -38 -51 7 -7 20 -4 41 8 45 25 42 60 -3
43z"/>
<path d="M2423 2445 c-20 -27 -24 -29 -43 -17 -26 16 -38 8 -20 -13 16 -19 64
-20 80 -1 6 8 10 25 8 38 -3 22 -4 22 -25 -7z"/>
<path d="M2670 1834 c-33 -13 -33 -14 -5 -8 17 3 34 10 40 15 11 11 8 11 -35
-7z"/>
<path d="M2030 486 c0 -3 17 -14 38 -23 32 -16 65 -18 271 -16 210 2 272 9
244 26 -5 3 -92 2 -194 -4 -171 -9 -291 -3 -342 17 -9 3 -17 3 -17 0z"/>
<path d="M2233 415 c-220 -23 -175 -33 62 -14 77 7 149 15 160 20 29 12 -78 9
-222 -6z"/>
<path d="M5020 1396 c0 -22 11 -25 58 -19 62 8 56 33 -8 33 -37 0 -50 -4 -50
-14z"/>
<path d="M85 540 c-38 -10 -73 -19 -77 -19 -5 -1 -8 -17 -8 -36 0 -43 4 -44
117 -4 95 34 113 44 113 65 0 20 -59 17 -145 -6z"/>
<path d="M4468 393 c7 -3 16 -2 19 1 4 3 -2 6 -13 5 -11 0 -14 -3 -6 -6z"/>
<path d="M3834 75 c-3 -8 4 -28 16 -45 18 -25 28 -30 63 -30 41 1 41 1 17 14
-14 8 -35 28 -48 45 -25 34 -40 39 -48 16z"/>
<path d="M3973 64 c-10 -28 40 -64 89 -64 l40 0 -53 35 c-28 20 -56 38 -61 41
-4 3 -11 -2 -15 -12z"/>
</g>
</svg>
